# Blender v2.79 (sub 0) OBJ File: 'arcade.blend'
# www.blender.org
mtllib arcade.mtl
o Cube_Cube.001
v -1.000000 -1.000000 0.694713
v -1.000000 1.815539 0.731981
v -0.444626 2.291726 0.731981
v 0.110748 2.291726 0.731981
v 0.458317 -1.000000 0.614904
v 0.666122 2.261905 0.702161
v 0.110748 -1.000000 0.694713
v -0.444626 -1.000000 0.694713
v -1.000000 -0.296115 0.731981
v -1.000000 0.407769 0.731981
v -1.000000 1.111654 0.731981
v 0.666122 1.783232 0.702161
v 0.013367 0.718337 0.667126
v 0.666122 -0.177069 0.731981
v 0.622549 1.814062 0.773412
v -0.995078 1.100331 0.773412
v 0.110748 -0.177069 0.731981
v -0.995078 0.459049 0.773412
v -0.995078 -0.182232 0.773412
v -0.444626 -0.177069 0.731981
v -1.000000 1.031509 0.731981
v 0.114521 1.571258 0.667126
v 0.585466 2.175447 0.773412
v 0.079487 2.175447 0.773412
v -1.000000 0.273457 0.731981
v 0.592020 0.455361 0.692056
v -0.426492 2.175447 0.773412
v -0.995078 1.741612 0.773412
v 0.129727 1.692986 0.731981
v 0.023602 0.633653 0.692056
v 0.114521 1.571258 0.000769
v 0.013367 0.718337 0.000769
v -0.324063 0.749592 0.609307
v -0.458639 1.503448 0.609307
v -0.458639 1.503448 0.000769
v -0.324063 0.749592 0.000769
v 0.506686 -0.363662 0.605802
v 0.110748 -0.363662 0.605802
v -0.444626 -0.363662 0.605802
v -1.000000 -0.455716 0.605802
v -1.000000 1.815539 0.731981
v -0.444626 2.291726 0.731981
v 0.110748 2.291726 0.731981
v 0.666122 2.291726 0.737770
v -1.000000 -0.296115 0.731981
v -1.000000 0.407769 0.731981
v -1.000000 1.111654 0.731981
v 0.666122 1.766707 0.744899
v 0.666122 -0.177069 0.731981
v 0.110748 -0.177069 0.731981
v -0.444626 -0.177069 0.731981
v -1.000000 1.031509 0.731981
v -1.000000 0.273457 0.731981
v 0.630032 0.443151 0.741480
v 0.129727 1.692986 0.731981
v -0.001082 0.645863 0.741480
v 0.585466 -0.073773 0.773412
v -0.026802 1.773018 0.773412
v -0.198616 0.583624 0.773412
v 0.079487 -0.073773 0.773412
v -0.426492 1.425707 0.773412
v -0.426492 0.675967 0.773412
v -0.426492 -0.073773 0.773412
v -0.995078 1.027314 0.773412
v -0.075098 1.485347 0.773412
v -0.426492 1.340340 0.773412
v -0.995078 0.336683 0.773412
v 0.585351 0.408639 0.773412
v -0.067957 0.349075 0.773412
v -0.426492 0.532905 0.773412
v 0.069680 1.742226 0.773412
v -0.065148 0.617576 0.773412
v -0.001082 0.645863 0.731981
v 0.023602 0.633653 -0.001952
v 0.630032 0.443151 0.731981
v 0.592020 0.455361 -0.001952
v 0.584250 0.431172 0.692056
v 0.029161 0.609465 0.692056
v 0.029161 0.609465 -0.001952
v 0.584250 0.431172 -0.001952
v 0.666122 2.291726 0.731981
v 0.666122 1.753412 0.731981
v 0.634789 2.261905 0.702161
v 0.634789 1.783232 0.702161
v -1.000000 -1.000000 -0.694713
v -1.000000 1.815539 -0.731981
v -0.444626 2.291726 -0.731981
v 0.110748 2.291726 -0.731981
v 0.458317 -1.000000 -0.614904
v 0.666122 2.261905 -0.702161
v 0.110748 -1.000000 -0.694713
v -0.444626 -1.000000 -0.694713
v -1.000000 -1.000000 0.000000
v -1.000000 1.815539 0.000000
v 0.606309 -1.000000 0.000000
v 0.666122 2.291726 0.000000
v -0.444626 2.291726 0.000000
v 0.110748 2.291726 0.000000
v 0.110748 -1.000000 0.000000
v -0.444626 -1.000000 0.000000
v -1.000000 -0.296115 -0.731981
v -1.000000 0.407769 -0.731981
v -1.000000 1.111654 -0.731981
v 0.666122 1.783232 -0.702161
v 0.013367 0.718337 -0.667126
v 0.666122 -0.177069 -0.731981
v 0.666122 1.753412 0.000000
v -0.001082 0.645863 0.000000
v 0.666122 -0.177069 0.000000
v -1.000000 1.111654 0.000000
v -1.000000 0.407769 0.000000
v -1.000000 -0.296115 0.000000
v 0.622549 1.814062 -0.773412
v -0.995078 1.100331 -0.773412
v 0.110748 -0.177069 -0.731981
v -0.995078 0.459049 -0.773412
v -0.995078 -0.182232 -0.773412
v -0.444626 -0.177069 -0.731981
v -1.000000 1.031509 -0.731981
v 0.114521 1.571258 -0.667126
v 0.129727 1.692986 0.000000
v -1.000000 1.031509 0.000000
v 0.585466 2.175447 -0.773412
v 0.079487 2.175447 -0.773412
v -1.000000 0.273457 -0.731981
v 0.592020 0.455361 -0.692056
v 0.630032 0.443151 0.000000
v -1.000000 0.273457 0.000000
v -0.426492 2.175447 -0.773412
v -0.995078 1.741612 -0.773412
v 0.129727 1.692986 -0.731981
v 0.023602 0.633653 -0.692056
v 0.114521 1.571258 -0.000769
v 0.013367 0.718337 -0.000769
v -0.324063 0.749592 -0.609307
v -0.458639 1.503448 -0.609307
v -0.458639 1.503448 -0.000769
v -0.324063 0.749592 -0.000769
v 0.506686 -0.363662 -0.605802
v 0.506686 -0.363662 0.000000
v -1.000000 -0.455716 0.000000
v 0.110748 -0.363662 -0.605802
v -0.444626 -0.363662 -0.605802
v -1.000000 -0.455716 -0.605802
v -1.000000 1.815539 -0.731981
v -0.444626 2.291726 -0.731981
v 0.110748 2.291726 -0.731981
v 0.666122 2.291726 -0.737770
v -1.000000 -0.296115 -0.731981
v -1.000000 0.407769 -0.731981
v -1.000000 1.111654 -0.731981
v 0.666122 1.766707 -0.744899
v 0.666122 -0.177069 -0.731981
v 0.110748 -0.177069 -0.731981
v -0.444626 -0.177069 -0.731981
v -1.000000 1.031509 -0.731981
v -1.000000 0.273457 -0.731981
v 0.630032 0.443151 -0.741480
v 0.129727 1.692986 -0.731981
v -0.001082 0.645863 -0.741480
v 0.585466 -0.073773 -0.773412
v -0.026802 1.773018 -0.773412
v -0.198616 0.583624 -0.773412
v 0.079487 -0.073773 -0.773412
v -0.426492 1.425707 -0.773412
v -0.426492 0.675967 -0.773412
v -0.426492 -0.073773 -0.773412
v -0.995078 1.027314 -0.773412
v -0.075098 1.485347 -0.773412
v -0.426492 1.340340 -0.773412
v -0.995078 0.336683 -0.773412
v 0.585351 0.408639 -0.773412
v -0.067957 0.349075 -0.773412
v -0.426492 0.532905 -0.773412
v 0.069680 1.742226 -0.773412
v -0.065148 0.617576 -0.773412
v -0.001082 0.645863 -0.731981
v 0.023602 0.633653 0.001952
v 0.630032 0.443151 -0.731981
v 0.592020 0.455361 0.001952
v 0.584250 0.431172 -0.692056
v 0.029161 0.609465 -0.692056
v 0.029161 0.609465 0.001952
v 0.584250 0.431172 0.001952
v 0.666122 2.291726 -0.731981
v 0.666122 2.261905 0.000000
v 0.666122 1.753412 -0.731981
v 0.666122 1.783232 0.000000
v 0.634789 2.261905 -0.702161
v 0.634789 1.783232 -0.702161
v 0.634789 2.261905 0.000000
v 0.634789 1.783232 0.000000
vn 0.0000 -1.0000 0.0000
vn 0.9983 0.0581 0.0000
vn 0.0000 1.0000 0.0000
vn 0.0000 0.0000 1.0000
vn -0.6509 0.7592 0.0000
vn -1.0000 0.0000 0.0000
vn 0.9923 -0.1240 0.0000
vn 0.0000 -0.5602 0.8284
vn 0.0783 -0.6947 0.7150
vn 1.0000 0.0000 0.0000
vn 0.1113 -0.5854 0.8031
vn 0.7603 -0.6496 0.0000
vn 0.1119 -0.9937 0.0000
vn 0.1175 -0.9931 -0.0000
vn 0.3058 0.9521 0.0000
vn 0.9918 -0.1211 0.0402
vn 0.9807 -0.1955 -0.0000
vn 0.9844 0.1757 0.0000
vn 0.0922 0.9957 -0.0000
vn 0.1259 0.0026 -0.9920
vn 0.1064 0.0723 0.9917
vn 0.9919 0.0408 0.1203
vn -0.0123 0.1489 0.9888
vn 0.0000 0.1384 0.9904
vn 0.5008 -0.0575 0.8637
vn 0.0000 -0.3723 0.9281
vn 0.4473 0.0259 0.8940
vn -0.9930 0.0000 0.1180
vn 0.0733 -0.3623 0.9292
vn -0.2861 0.3533 0.8907
vn 0.0623 -0.5406 0.8389
vn 0.1731 0.5388 0.8245
vn -0.0052 0.3168 0.9485
vn 0.0000 0.3356 0.9420
vn 0.5089 0.0093 0.8608
vn 0.4434 0.8963 0.0000
vn 0.3023 0.9519 -0.0505
vn 0.9746 0.2240 0.0000
vn -0.9521 0.3058 0.0000
vn -0.0000 0.0000 -1.0000
vn 0.0000 -0.5602 -0.8284
vn 0.0783 -0.6947 -0.7150
vn 0.1113 -0.5854 -0.8031
vn 0.9918 -0.1211 -0.0402
vn 0.1259 0.0026 0.9920
vn 0.1064 0.0723 -0.9917
vn 0.9919 0.0408 -0.1203
vn -0.0123 0.1489 -0.9888
vn 0.0000 0.1384 -0.9904
vn 0.5008 -0.0575 -0.8637
vn 0.0000 -0.3723 -0.9281
vn 0.4473 0.0259 -0.8940
vn -0.9930 0.0000 -0.1180
vn 0.0733 -0.3623 -0.9292
vn -0.2861 0.3533 -0.8907
vn 0.0623 -0.5406 -0.8389
vn 0.1731 0.5388 -0.8245
vn -0.0052 0.3168 -0.9485
vn 0.0000 0.3356 -0.9420
vn 0.5089 0.0093 -0.8608
vn 0.3023 0.9519 0.0505
usemtl None
s off
f 100//1 99//1 7//1 8//1
f 14//2 75//2 54//2 49//2
f 12//3 188//3 192//3 84//3
f 2//4 11//4 47//4 41//4
f 99//1 95//1 5//1 7//1
f 97//5 94//5 2//5 3//5
f 98//3 97//3 3//3 4//3
f 93//1 100//1 8//1 1//1
f 96//3 98//3 4//3 81//3
f 11//6 2//6 94//6 110//6
f 73//7 29//7 55//7 56//7
f 38//8 17//8 20//8 39//8
f 29//9 82//9 48//9 55//9
f 82//10 81//10 44//10 48//10
f 40//6 9//6 112//6 141//6
f 25//6 10//6 111//6 128//6
f 21//6 11//6 110//6 122//6
f 39//11 20//11 9//11 40//11
f 21//4 10//4 46//4 52//4
f 20//4 17//4 50//4 51//4
f 140//12 109//12 14//12 37//12
f 121//13 107//13 82//13 29//13
f 37//8 14//8 17//8 38//8
f 81//3 4//3 43//3 44//3
f 11//4 21//4 52//4 47//4
f 4//4 3//4 42//4 43//4
f 31//14 22//14 34//14 35//14
f 10//4 25//4 53//4 46//4
f 10//6 21//6 122//6 111//6
f 9//4 20//4 51//4 45//4
f 3//4 2//4 41//4 42//4
f 109//2 127//2 75//2 14//2
f 75//15 73//15 56//15 54//15
f 9//6 25//6 128//6 112//6
f 17//4 14//4 49//4 50//4
f 13//16 22//16 29//16 73//16
f 32//17 13//17 73//17 108//17
f 22//7 31//7 121//7 29//7
f 36//18 35//18 34//18 33//18
f 13//19 32//19 36//19 33//19
f 22//20 13//20 33//20 34//20
f 5//21 37//21 38//21 7//21
f 95//22 140//22 37//22 5//22
f 8//23 39//23 40//23 1//23
f 1//6 40//6 141//6 93//6
f 7//24 38//24 39//24 8//24
f 56//25 55//25 71//25 72//25
f 50//26 49//26 57//26 60//26
f 48//27 44//27 23//27 15//27
f 47//28 52//28 64//28 16//28
f 46//28 53//28 67//28 18//28
f 45//29 51//29 63//29 19//29
f 42//30 41//30 28//30 27//30
f 55//31 48//31 15//31 71//31
f 54//32 56//32 72//32 68//32
f 44//33 43//33 24//33 23//33
f 52//28 46//28 18//28 64//28
f 53//28 45//28 19//28 67//28
f 43//34 42//34 27//34 24//34
f 49//35 54//35 68//35 57//35
f 51//26 50//26 60//26 63//26
f 25//4 9//4 45//4 53//4
f 15//4 23//4 24//4 58//4
f 61//4 27//4 28//4 16//4
f 58//4 24//4 27//4 61//4
f 69//4 59//4 62//4 70//4
f 65//4 58//4 61//4 66//4
f 70//4 62//4 18//4 67//4
f 66//4 61//4 16//4 64//4
f 68//4 72//4 59//4 69//4
f 71//4 15//4 58//4 65//4
f 72//4 71//4 65//4 59//4
f 62//4 66//4 64//4 18//4
f 59//4 65//4 66//4 62//4
f 57//4 68//4 69//4 60//4
f 63//4 70//4 67//4 19//4
f 60//4 69//4 70//4 63//4
f 41//28 47//28 16//28 28//28
f 30//36 74//36 108//36 73//36
f 26//37 30//37 73//37 75//37
f 76//15 26//15 75//15 127//15
f 80//15 79//15 78//15 77//15
f 74//38 30//38 78//38 79//38
f 26//39 76//39 80//39 77//39
f 30//40 26//40 77//40 78//40
f 6//10 186//10 96//10 81//10
f 12//10 6//10 81//10 82//10
f 188//10 12//10 82//10 107//10
f 192//10 191//10 83//10 84//10
f 6//40 12//40 84//40 83//40
f 186//1 6//1 83//1 191//1
f 100//1 92//1 91//1 99//1
f 106//2 153//2 158//2 179//2
f 104//3 190//3 192//3 188//3
f 86//4 145//4 151//4 103//4
f 99//1 91//1 89//1 95//1
f 97//5 87//5 86//5 94//5
f 98//3 88//3 87//3 97//3
f 93//1 85//1 92//1 100//1
f 96//3 185//3 88//3 98//3
f 103//6 110//6 94//6 86//6
f 177//7 160//7 159//7 131//7
f 142//41 143//41 118//41 115//41
f 131//42 159//42 152//42 187//42
f 187//10 152//10 148//10 185//10
f 144//6 141//6 112//6 101//6
f 125//6 128//6 111//6 102//6
f 119//6 122//6 110//6 103//6
f 143//43 144//43 101//43 118//43
f 119//4 156//4 150//4 102//4
f 118//4 155//4 154//4 115//4
f 140//12 139//12 106//12 109//12
f 121//13 131//13 187//13 107//13
f 139//41 142//41 115//41 106//41
f 185//3 148//3 147//3 88//3
f 103//4 151//4 156//4 119//4
f 88//4 147//4 146//4 87//4
f 133//14 137//14 136//14 120//14
f 102//4 150//4 157//4 125//4
f 102//6 111//6 122//6 119//6
f 101//4 149//4 155//4 118//4
f 87//4 146//4 145//4 86//4
f 109//2 106//2 179//2 127//2
f 179//15 158//15 160//15 177//15
f 101//6 112//6 128//6 125//6
f 115//4 154//4 153//4 106//4
f 105//44 177//44 131//44 120//44
f 134//17 108//17 177//17 105//17
f 120//7 131//7 121//7 133//7
f 138//18 135//18 136//18 137//18
f 105//19 135//19 138//19 134//19
f 120//45 136//45 135//45 105//45
f 89//46 91//46 142//46 139//46
f 95//47 89//47 139//47 140//47
f 92//48 85//48 144//48 143//48
f 85//6 93//6 141//6 144//6
f 91//49 92//49 143//49 142//49
f 160//50 176//50 175//50 159//50
f 154//51 164//51 161//51 153//51
f 152//52 113//52 123//52 148//52
f 151//53 114//53 168//53 156//53
f 150//53 116//53 171//53 157//53
f 149//54 117//54 167//54 155//54
f 146//55 129//55 130//55 145//55
f 159//56 175//56 113//56 152//56
f 158//57 172//57 176//57 160//57
f 148//58 123//58 124//58 147//58
f 156//53 168//53 116//53 150//53
f 157//53 171//53 117//53 149//53
f 147//59 124//59 129//59 146//59
f 153//60 161//60 172//60 158//60
f 155//51 167//51 164//51 154//51
f 125//4 157//4 149//4 101//4
f 113//40 162//40 124//40 123//40
f 165//40 114//40 130//40 129//40
f 162//40 165//40 129//40 124//40
f 173//40 174//40 166//40 163//40
f 169//40 170//40 165//40 162//40
f 174//40 171//40 116//40 166//40
f 170//40 168//40 114//40 165//40
f 172//40 173//40 163//40 176//40
f 175//40 169//40 162//40 113//40
f 176//40 163//40 169//40 175//40
f 166//40 116//40 168//40 170//40
f 163//40 166//40 170//40 169//40
f 161//40 164//40 173//40 172//40
f 167//40 117//40 171//40 174//40
f 164//40 167//40 174//40 173//40
f 145//53 130//53 114//53 151//53
f 132//36 177//36 108//36 178//36
f 126//61 179//61 177//61 132//61
f 180//15 127//15 179//15 126//15
f 184//15 181//15 182//15 183//15
f 178//38 183//38 182//38 132//38
f 126//39 181//39 184//39 180//39
f 132//4 182//4 181//4 126//4
f 90//10 185//10 96//10 186//10
f 104//10 187//10 185//10 90//10
f 188//10 107//10 187//10 104//10
f 192//10 190//10 189//10 191//10
f 90//4 189//4 190//4 104//4
f 186//1 191//1 189//1 90//1
