# Blender v2.80 (sub 75) OBJ File: 'skullboi.blend'
# www.blender.org
mtllib gadzook.mtl
o Cone
v 0.000000 -1.000000 -2.350000
v 2.234983 -1.000000 -0.726190
v 1.381295 -1.000000 1.901190
v 0.000000 1.000000 0.000000
v -1.381296 -1.000000 1.901190
v -2.234983 -1.000000 -0.726190
vt 0.250000 0.490000
vt 0.250000 0.250000
vt 0.478254 0.324164
vt 0.391068 0.055836
vt 0.108932 0.055836
vt 0.021746 0.324164
vt 0.750000 0.490000
vt 0.978254 0.324164
vt 0.891068 0.055836
vt 0.608932 0.055836
vt 0.521746 0.324164
vn 0.4260 0.6890 -0.5864
vn 0.6893 0.6890 0.2240
vn -0.0000 0.6890 0.7248
vn -0.6893 0.6890 0.2240
vn -0.4260 0.6890 -0.5864
vn 0.0000 -1.0000 -0.0000
usemtl None
s off
f 1/1/1 4/2/1 2/3/1
f 2/3/2 4/2/2 3/4/2
f 3/4/3 4/2/3 5/5/3
f 5/5/4 4/2/4 6/6/4
f 6/6/5 4/2/5 1/1/5
f 1/7/6 2/8/6 3/9/6 5/10/6 6/11/6
o Cone.001
v -0.383232 -0.998525 1.128889
v -0.383232 -0.998525 1.895352
v 0.383232 -0.998525 1.895352
v 0.383232 -0.998525 1.128889
v 0.000000 -1.983928 1.512120
vt 0.250000 0.490000
vt 0.250000 0.250000
vt 0.490000 0.250000
vt 0.250000 0.010000
vt 0.010000 0.250000
vt 0.750000 0.490000
vt 0.990000 0.250000
vt 0.750000 0.010000
vt 0.510000 0.250000
vn -0.9320 -0.3625 0.0000
vn 0.0000 -0.3625 0.9320
vn 0.9320 -0.3625 -0.0000
vn 0.0000 -0.3625 -0.9320
vn -0.0000 1.0000 0.0000
usemtl None
s off
f 7/12/7 11/13/7 8/14/7
f 8/14/8 11/13/8 9/15/8
f 9/15/9 11/13/9 10/16/9
f 10/16/10 11/13/10 7/12/10
f 7/17/11 8/18/11 9/19/11 10/20/11
o Cone.002
v 0.424588 -0.998525 1.128889
v 0.424588 -0.998525 1.895352
v 1.191052 -0.998525 1.895352
v 1.191052 -0.998525 1.128889
v 0.807820 -1.983928 1.512120
vt 0.250000 0.490000
vt 0.250000 0.250000
vt 0.490000 0.250000
vt 0.250000 0.010000
vt 0.010000 0.250000
vt 0.750000 0.490000
vt 0.990000 0.250000
vt 0.750000 0.010000
vt 0.510000 0.250000
vn -0.9320 -0.3625 0.0000
vn 0.0000 -0.3625 0.9320
vn 0.9320 -0.3625 -0.0000
vn 0.0000 -0.3625 -0.9320
vn -0.0000 1.0000 0.0000
usemtl None
s off
f 12/21/12 16/22/12 13/23/12
f 13/23/13 16/22/13 14/24/13
f 14/24/14 16/22/14 15/25/14
f 15/25/15 16/22/15 12/21/15
f 12/26/16 13/27/16 14/28/16 15/29/16
o Cone.003
v -1.191052 -0.998525 1.128889
v -1.191052 -0.998525 1.895352
v -0.424588 -0.998525 1.895352
v -0.424588 -0.998525 1.128889
v -0.807820 -1.983928 1.512120
vt 0.250000 0.490000
vt 0.250000 0.250000
vt 0.490000 0.250000
vt 0.250000 0.010000
vt 0.010000 0.250000
vt 0.750000 0.490000
vt 0.990000 0.250000
vt 0.750000 0.010000
vt 0.510000 0.250000
vn -0.9320 -0.3625 0.0000
vn 0.0000 -0.3625 0.9320
vn 0.9320 -0.3625 -0.0000
vn 0.0000 -0.3625 -0.9320
vn -0.0000 1.0000 0.0000
usemtl None
s off
f 17/30/17 21/31/17 18/32/17
f 18/32/18 21/31/18 19/33/18
f 19/33/19 21/31/19 20/34/19
f 20/34/20 21/31/20 17/30/20
f 17/35/21 18/36/21 19/37/21 20/38/21
o Sphere
v -1.324639 -0.648901 0.742185
v -1.324639 -0.714557 0.794859
v -1.224126 -0.583245 0.922026
v -1.182492 -0.648901 0.922026
v -1.224126 -0.714557 0.922026
v -1.324639 -0.559578 0.922026
v -1.324639 -0.583245 1.049193
v -1.324639 -0.648901 1.101867
v -1.324639 -0.714557 1.049193
v -1.324639 -0.738225 0.922026
v -1.425151 -0.583245 0.922026
v -1.466785 -0.648901 0.922026
v -1.425151 -0.714557 0.922026
v -1.324639 -0.583245 0.794859
v -1.324639 -0.682977 0.761818
v -1.198011 -0.614825 0.922026
v -1.198011 -0.682977 0.922026
v -1.269448 -0.716468 0.852199
v -1.242969 -0.648901 0.818698
v -1.324639 -0.568988 0.985226
v -1.324639 -0.614825 1.082233
v -1.324639 -0.682977 1.082233
v -1.324639 -0.728815 0.985226
v -1.269448 -0.716468 0.991853
v -1.242969 -0.648901 1.025353
v -1.269448 -0.581334 0.991853
v -1.451267 -0.614825 0.922026
v -1.451267 -0.682977 0.922026
v -1.379830 -0.716468 0.991853
v -1.406309 -0.648901 1.025353
v -1.379830 -0.581334 0.991853
v -1.379830 -0.581334 0.852199
v -1.324639 -0.568988 0.858826
v -1.324639 -0.614825 0.761818
v -1.324639 -0.728815 0.858826
v -1.274686 -0.568988 0.922026
v -1.274686 -0.728815 0.922026
v -1.269448 -0.581334 0.852199
v -1.374592 -0.568988 0.922026
v -1.374592 -0.728815 0.922026
v -1.379830 -0.716468 0.852199
v -1.406309 -0.648901 0.818698
v -1.396998 -0.682977 0.830479
v -1.396998 -0.614825 0.830479
v -1.396998 -0.682977 1.013573
v -1.396998 -0.614825 1.013573
v -1.252280 -0.682977 1.013573
v -1.252280 -0.614825 1.013573
v -1.252280 -0.682977 0.830479
v -1.252280 -0.614825 0.830479
v 1.324639 -0.648901 0.742185
v 1.324639 -0.714557 0.794859
v 1.224126 -0.583245 0.922026
v 1.182492 -0.648901 0.922026
v 1.224126 -0.714557 0.922026
v 1.324639 -0.559578 0.922026
v 1.324639 -0.583245 1.049193
v 1.324639 -0.648901 1.101867
v 1.324639 -0.714557 1.049193
v 1.324639 -0.738225 0.922026
v 1.425151 -0.583245 0.922026
v 1.466785 -0.648901 0.922026
v 1.425151 -0.714557 0.922026
v 1.324639 -0.583245 0.794859
v 1.324639 -0.682977 0.761818
v 1.198011 -0.614825 0.922026
v 1.198011 -0.682977 0.922026
v 1.269448 -0.716468 0.852199
v 1.242969 -0.648901 0.818698
v 1.324639 -0.568988 0.985226
v 1.324639 -0.614825 1.082233
v 1.324639 -0.682977 1.082233
v 1.324639 -0.728815 0.985226
v 1.269448 -0.716468 0.991853
v 1.242969 -0.648901 1.025353
v 1.269448 -0.581334 0.991853
v 1.451267 -0.614825 0.922026
v 1.451267 -0.682977 0.922026
v 1.379830 -0.716468 0.991853
v 1.406309 -0.648901 1.025353
v 1.379830 -0.581334 0.991853
v 1.379830 -0.581334 0.852199
v 1.324639 -0.568988 0.858826
v 1.324639 -0.614825 0.761818
v 1.324639 -0.728815 0.858826
v 1.274686 -0.568988 0.922026
v 1.274686 -0.728815 0.922026
v 1.269448 -0.581334 0.852199
v 1.374592 -0.568988 0.922026
v 1.374592 -0.728815 0.922026
v 1.379830 -0.716468 0.852199
v 1.406309 -0.648901 0.818698
v 1.396998 -0.682977 0.830479
v 1.396998 -0.614825 0.830479
v 1.396998 -0.682977 1.013573
v 1.396998 -0.614825 1.013573
v 1.252280 -0.682977 1.013573
v 1.252280 -0.614825 1.013573
v 1.252280 -0.682977 0.830479
v 1.252280 -0.614825 0.830479
vt 0.625000 0.000000
vt 0.687500 0.125000
vt 0.562500 0.125000
vt 0.625000 0.625000
vt 0.625000 0.750000
vt 0.500000 0.750000
vt 0.500000 0.625000
vt 0.625000 0.375000
vt 0.625000 0.500000
vt 0.500000 0.500000
vt 0.500000 0.375000
vt 0.750000 0.750000
vt 0.687500 0.875000
vt 0.375000 0.000000
vt 0.437500 0.125000
vt 0.312500 0.125000
vt 0.375000 0.625000
vt 0.375000 0.750000
vt 0.250000 0.750000
vt 0.250000 0.625000
vt 0.375000 0.375000
vt 0.375000 0.500000
vt 0.250000 0.500000
vt 0.250000 0.375000
vt 0.437500 0.875000
vt 0.125000 0.000000
vt 0.187500 0.125000
vt 0.062500 0.125000
vt 0.125000 0.625000
vt 0.125000 0.750000
vt 0.000000 0.750000
vt 0.000000 0.625000
vt 0.125000 0.375000
vt 0.125000 0.500000
vt 0.000000 0.500000
vt 0.000000 0.375000
vt 0.187500 0.875000
vt 0.875000 0.000000
vt 0.937500 0.125000
vt 0.812500 0.125000
vt 0.875000 0.625000
vt 0.875000 0.750000
vt 0.750000 0.625000
vt 0.875000 0.375000
vt 0.875000 0.500000
vt 0.750000 0.500000
vt 0.750000 0.375000
vt 1.000000 0.750000
vt 0.937500 0.875000
vt 0.812500 0.875000
vt 0.875000 1.000000
vt 0.875000 0.250000
vt 0.750000 0.250000
vt 1.000000 0.250000
vt 1.000000 0.375000
vt 1.000000 0.500000
vt 1.000000 0.625000
vt 0.062500 0.875000
vt 0.125000 1.000000
vt 0.125000 0.250000
vt 0.000000 0.250000
vt 0.250000 0.250000
vt 0.312500 0.875000
vt 0.375000 1.000000
vt 0.375000 0.250000
vt 0.500000 0.250000
vt 0.562500 0.875000
vt 0.625000 1.000000
vt 0.625000 0.250000
vt 0.625000 0.000000
vt 0.562500 0.125000
vt 0.687500 0.125000
vt 0.625000 0.625000
vt 0.500000 0.625000
vt 0.500000 0.750000
vt 0.625000 0.750000
vt 0.625000 0.375000
vt 0.500000 0.375000
vt 0.500000 0.500000
vt 0.625000 0.500000
vt 0.750000 0.750000
vt 0.687500 0.875000
vt 0.375000 0.000000
vt 0.312500 0.125000
vt 0.437500 0.125000
vt 0.375000 0.625000
vt 0.250000 0.625000
vt 0.250000 0.750000
vt 0.375000 0.750000
vt 0.375000 0.375000
vt 0.250000 0.375000
vt 0.250000 0.500000
vt 0.375000 0.500000
vt 0.437500 0.875000
vt 0.125000 0.000000
vt 0.062500 0.125000
vt 0.187500 0.125000
vt 0.125000 0.625000
vt 0.000000 0.625000
vt 0.000000 0.750000
vt 0.125000 0.750000
vt 0.125000 0.375000
vt 0.000000 0.375000
vt 0.000000 0.500000
vt 0.125000 0.500000
vt 0.187500 0.875000
vt 0.875000 0.000000
vt 0.812500 0.125000
vt 0.937500 0.125000
vt 0.875000 0.625000
vt 0.750000 0.625000
vt 0.875000 0.750000
vt 0.875000 0.375000
vt 0.750000 0.375000
vt 0.750000 0.500000
vt 0.875000 0.500000
vt 1.000000 0.750000
vt 0.937500 0.875000
vt 0.812500 0.875000
vt 0.875000 1.000000
vt 0.875000 0.250000
vt 0.750000 0.250000
vt 1.000000 0.250000
vt 1.000000 0.375000
vt 1.000000 0.500000
vt 1.000000 0.625000
vt 0.062500 0.875000
vt 0.125000 1.000000
vt 0.125000 0.250000
vt 0.000000 0.250000
vt 0.250000 0.250000
vt 0.312500 0.875000
vt 0.375000 1.000000
vt 0.375000 0.250000
vt 0.500000 0.250000
vt 0.562500 0.875000
vt 0.625000 1.000000
vt 0.625000 0.250000
vn 0.1832 -0.9724 -0.1448
vn 0.6866 0.5958 -0.4167
vn 0.7996 -0.3727 -0.4708
vn 0.1888 0.9585 -0.2136
vn 0.1832 -0.9724 0.1448
vn 0.5474 0.6187 0.5635
vn 0.6303 -0.3944 0.6687
vn 0.2684 0.9518 0.1482
vn -0.1832 -0.9724 0.1448
vn -0.6866 0.5958 0.4167
vn -0.7996 -0.3727 0.4708
vn -0.1888 0.9585 0.2136
vn -0.1832 -0.9724 -0.1448
vn -0.5474 0.6187 -0.5635
vn -0.6303 -0.3944 -0.6687
vn -0.2684 0.9518 -0.1482
vn -0.1888 0.9585 -0.2136
vn -0.1977 0.9677 -0.1563
vn -0.1832 0.9724 -0.1448
vn -0.5474 -0.6187 -0.5635
vn -0.6866 -0.5958 -0.4167
vn -0.7996 -0.3727 -0.4708
vn -0.6303 0.3944 -0.6687
vn -0.7996 0.3727 -0.4708
vn -0.6866 0.5958 -0.4167
vn -0.1888 -0.9585 -0.2136
vn -0.1977 -0.9677 -0.1563
vn -0.2684 -0.9518 -0.1482
vn -0.2684 0.9518 0.1482
vn -0.1977 0.9677 0.1563
vn -0.1832 0.9724 0.1448
vn -0.6866 -0.5958 0.4167
vn -0.5474 -0.6187 0.5635
vn -0.6303 -0.3944 0.6687
vn -0.7996 0.3727 0.4708
vn -0.6303 0.3944 0.6687
vn -0.5474 0.6187 0.5635
vn -0.2684 -0.9518 0.1482
vn -0.1977 -0.9677 0.1563
vn -0.1888 -0.9585 0.2136
vn 0.1888 0.9585 0.2136
vn 0.1977 0.9677 0.1563
vn 0.1832 0.9724 0.1448
vn 0.5474 -0.6187 0.5635
vn 0.6866 -0.5958 0.4167
vn 0.7996 -0.3727 0.4708
vn 0.6303 0.3944 0.6687
vn 0.7996 0.3727 0.4708
vn 0.6866 0.5958 0.4167
vn 0.1888 -0.9585 0.2136
vn 0.1977 -0.9677 0.1563
vn 0.2684 -0.9518 0.1482
vn 0.2684 0.9518 -0.1482
vn 0.1977 0.9677 -0.1563
vn 0.1832 0.9724 -0.1448
vn 0.6866 -0.5958 -0.4167
vn 0.5474 -0.6187 -0.5635
vn 0.6303 -0.3944 -0.6687
vn 0.7996 0.3727 -0.4708
vn 0.6303 0.3944 -0.6687
vn 0.5474 0.6187 -0.5635
vn 0.2684 -0.9518 -0.1482
vn 0.1977 -0.9677 -0.1563
vn 0.1888 -0.9585 -0.2136
usemtl None
s off
f 31/39/22 56/40/22 58/41/22
f 71/42/23 59/43/23 24/44/23 37/45/23
f 70/46/24 40/47/24 25/48/24 38/49/24
f 35/50/25 54/51/25 59/43/25
f 31/52/26 58/53/26 44/54/26
f 69/55/27 47/56/27 28/57/27 42/58/27
f 68/59/28 46/60/28 29/61/28 43/62/28
f 24/44/29 57/63/29 47/56/29
f 31/64/30 44/65/30 61/66/30
f 67/67/31 52/68/31 32/69/31 48/70/31
f 66/71/32 51/72/32 33/73/32 49/74/32
f 28/57/33 41/75/33 52/68/33
f 31/76/34 61/77/34 56/78/34
f 65/79/35 53/80/35 35/50/35 55/81/35
f 64/82/36 63/83/36 22/84/36 36/85/36
f 32/86/37 60/87/37 53/80/37
f 53/80/38 54/88/38 35/50/38
f 53/80/39 60/87/39 54/88/39
f 60/87/40 27/89/40 54/88/40
f 62/90/41 64/82/41 36/85/41 23/91/41
f 34/92/42 49/93/42 64/82/42 62/90/42
f 49/93/43 33/94/43 63/83/43 64/82/43
f 63/83/44 65/79/44 55/81/44 22/84/44
f 33/94/45 48/95/45 65/79/45 63/83/45
f 48/95/46 32/86/46 53/80/46 65/79/46
f 56/78/47 62/90/47 23/91/47
f 56/78/48 61/77/48 62/90/48
f 61/77/49 34/92/49 62/90/49
f 52/68/50 60/96/50 32/69/50
f 52/68/51 41/75/51 60/96/51
f 41/75/52 27/97/52 60/96/52
f 50/98/53 66/71/53 49/74/53 34/99/53
f 30/100/54 43/62/54 66/71/54 50/98/54
f 43/62/55 29/61/55 51/72/55 66/71/55
f 51/72/56 67/67/56 48/70/56 33/73/56
f 29/61/57 42/58/57 67/67/57 51/72/57
f 42/58/58 28/57/58 52/68/58 67/67/58
f 61/66/59 50/98/59 34/99/59
f 61/66/60 44/65/60 50/98/60
f 44/65/61 30/100/61 50/98/61
f 47/56/62 41/101/62 28/57/62
f 47/56/63 57/63/63 41/101/63
f 57/63/64 27/102/64 41/101/64
f 45/103/65 68/59/65 43/62/65 30/100/65
f 26/104/66 38/49/66 68/59/66 45/103/66
f 38/49/67 25/48/67 46/60/67 68/59/67
f 46/60/68 69/55/68 42/58/68 29/61/68
f 25/48/69 37/45/69 69/55/69 46/60/69
f 37/45/70 24/44/70 47/56/70 69/55/70
f 44/54/71 45/103/71 30/100/71
f 44/54/72 58/53/72 45/103/72
f 58/53/73 26/104/73 45/103/73
f 59/43/74 57/105/74 24/44/74
f 59/43/75 54/51/75 57/105/75
f 54/51/76 27/106/76 57/105/76
f 39/107/77 70/46/77 38/49/77 26/104/77
f 23/91/78 36/85/78 70/46/78 39/107/78
f 36/85/79 22/84/79 40/47/79 70/46/79
f 40/47/80 71/42/80 37/45/80 25/48/80
f 22/84/81 55/81/81 71/42/81 40/47/81
f 55/81/82 35/50/82 59/43/82 71/42/82
f 58/41/83 39/107/83 26/104/83
f 58/41/84 56/40/84 39/107/84
f 56/40/85 23/91/85 39/107/85
f 81/108/34 108/109/34 106/110/34
f 121/111/46 87/112/46 74/113/46 109/114/46
f 120/115/43 88/116/43 75/117/43 90/118/43
f 85/119/38 109/114/38 104/120/38
f 81/121/30 94/122/30 108/123/30
f 119/124/58 92/125/58 78/126/58 97/127/58
f 118/128/55 93/129/55 79/130/55 96/131/55
f 74/113/50 97/127/50 107/132/50
f 81/133/26 111/134/26 94/135/26
f 117/136/70 98/137/70 82/138/70 102/139/70
f 116/140/67 99/141/67 83/142/67 101/143/67
f 78/126/62 102/139/62 91/144/62
f 81/145/22 106/146/22 111/147/22
f 115/148/82 105/149/82 85/119/82 103/150/82
f 114/151/79 86/152/79 72/153/79 113/154/79
f 82/155/74 103/150/74 110/156/74
f 103/150/25 85/119/25 104/157/25
f 103/150/75 104/157/75 110/156/75
f 110/156/76 104/157/76 77/158/76
f 112/159/78 73/160/78 86/152/78 114/151/78
f 84/161/77 112/159/77 114/151/77 99/162/77
f 99/162/24 114/151/24 113/154/24 83/163/24
f 113/154/81 72/153/81 105/149/81 115/148/81
f 83/163/80 113/154/80 115/148/80 98/164/80
f 98/164/23 115/148/23 103/150/23 82/155/23
f 106/146/85 73/160/85 112/159/85
f 106/146/84 112/159/84 111/147/84
f 111/147/83 112/159/83 84/161/83
f 102/139/29 82/138/29 110/165/29
f 102/139/63 110/165/63 91/144/63
f 91/144/64 110/165/64 77/166/64
f 100/167/66 84/168/66 99/141/66 116/140/66
f 80/169/65 100/167/65 116/140/65 93/129/65
f 93/129/28 116/140/28 101/143/28 79/130/28
f 101/143/69 83/142/69 98/137/69 117/136/69
f 79/130/68 101/143/68 117/136/68 92/125/68
f 92/125/27 117/136/27 102/139/27 78/126/27
f 111/134/73 84/168/73 100/167/73
f 111/134/72 100/167/72 94/135/72
f 94/135/71 100/167/71 80/169/71
f 97/127/33 78/126/33 91/170/33
f 97/127/51 91/170/51 107/132/51
f 107/132/52 91/170/52 77/171/52
f 95/172/54 80/169/54 93/129/54 118/128/54
f 76/173/53 95/172/53 118/128/53 88/116/53
f 88/116/32 118/128/32 96/131/32 75/117/32
f 96/131/57 79/130/57 92/125/57 119/124/57
f 75/117/56 96/131/56 119/124/56 87/112/56
f 87/112/31 119/124/31 97/127/31 74/113/31
f 94/122/61 80/169/61 95/172/61
f 94/122/60 95/172/60 108/123/60
f 108/123/59 95/172/59 76/173/59
f 109/114/37 74/113/37 107/174/37
f 109/114/39 107/174/39 104/120/39
f 104/120/40 107/174/40 77/175/40
f 89/176/42 76/173/42 88/116/42 120/115/42
f 73/160/41 89/176/41 120/115/41 86/152/41
f 86/152/36 120/115/36 90/118/36 72/153/36
f 90/118/45 75/117/45 87/112/45 121/111/45
f 72/153/44 90/118/44 121/111/44 105/149/44
f 105/149/35 121/111/35 109/114/35 85/119/35
f 108/109/49 76/173/49 89/176/49
f 108/109/48 89/176/48 106/110/48
f 106/110/47 89/176/47 73/160/47
o Cone.004
v -0.003685 -2.121078 5.193692
v 5.407224 -2.121078 -0.217217
v -0.003684 -2.121078 -5.628127
v -5.414593 -2.121077 -0.217218
v -0.003686 -10.658103 -0.217217
vt 0.250000 0.490000
vt 0.250000 0.250000
vt 0.490000 0.250000
vt 0.250000 0.010000
vt 0.010000 0.250000
vt 0.750000 0.490000
vt 0.990000 0.250000
vt 0.750000 0.010000
vt 0.510000 0.250000
vn 0.6453 -0.4090 0.6453
vn 0.6453 -0.4090 -0.6453
vn -0.6453 -0.4090 -0.6453
vn -0.6453 -0.4090 0.6453
vn 0.0000 1.0000 0.0000
usemtl None
s off
f 122/177/86 126/178/86 123/179/86
f 123/179/87 126/178/87 124/180/87
f 124/180/88 126/178/88 125/181/88
f 125/181/89 126/178/89 122/177/89
f 122/182/90 123/183/90 124/184/90 125/185/90
o Cube_Cube.001
v -4.414214 -4.004940 3.000000
v -4.414214 -2.004940 3.000000
v -3.000000 -4.004940 1.585786
v -3.000000 -2.004940 1.585786
v -3.000000 -4.004940 4.414214
v -3.000000 -2.004940 4.414214
v -1.585786 -4.004940 3.000000
v -1.585786 -2.004940 3.000000
v 4.414214 -4.004940 3.000000
v 4.414214 -2.004940 3.000000
v 3.000000 -4.004940 1.585786
v 3.000000 -2.004940 1.585786
v 3.000000 -4.004940 4.414214
v 3.000000 -2.004940 4.414214
v 1.585786 -4.004940 3.000000
v 1.585786 -2.004940 3.000000
v -4.414214 -4.004940 -3.000000
v -4.414214 -2.004940 -3.000000
v -3.000000 -4.004940 -1.585786
v -3.000000 -2.004940 -1.585786
v -3.000000 -4.004940 -4.414214
v -3.000000 -2.004940 -4.414214
v -1.585786 -4.004940 -3.000000
v -1.585786 -2.004940 -3.000000
v 4.414214 -4.004940 -3.000000
v 4.414214 -2.004940 -3.000000
v 3.000000 -4.004940 -1.585786
v 3.000000 -2.004940 -1.585786
v 3.000000 -4.004940 -4.414214
v 3.000000 -2.004940 -4.414214
v 1.585786 -4.004940 -3.000000
v 1.585786 -2.004940 -3.000000
vt 0.375000 0.000000
vt 0.625000 0.000000
vt 0.625000 0.250000
vt 0.375000 0.250000
vt 0.625000 0.500000
vt 0.375000 0.500000
vt 0.625000 0.750000
vt 0.375000 0.750000
vt 0.625000 1.000000
vt 0.375000 1.000000
vt 0.125000 0.500000
vt 0.125000 0.750000
vt 0.875000 0.500000
vt 0.875000 0.750000
vt 0.375000 0.000000
vt 0.375000 0.250000
vt 0.625000 0.250000
vt 0.625000 0.000000
vt 0.375000 0.500000
vt 0.625000 0.500000
vt 0.375000 0.750000
vt 0.625000 0.750000
vt 0.375000 1.000000
vt 0.625000 1.000000
vt 0.125000 0.500000
vt 0.125000 0.750000
vt 0.875000 0.750000
vt 0.875000 0.500000
vt 0.375000 0.000000
vt 0.375000 0.250000
vt 0.625000 0.250000
vt 0.625000 0.000000
vt 0.375000 0.500000
vt 0.625000 0.500000
vt 0.375000 0.750000
vt 0.625000 0.750000
vt 0.375000 1.000000
vt 0.625000 1.000000
vt 0.125000 0.500000
vt 0.125000 0.750000
vt 0.875000 0.750000
vt 0.875000 0.500000
vt 0.375000 0.000000
vt 0.625000 0.000000
vt 0.625000 0.250000
vt 0.375000 0.250000
vt 0.625000 0.500000
vt 0.375000 0.500000
vt 0.625000 0.750000
vt 0.375000 0.750000
vt 0.625000 1.000000
vt 0.375000 1.000000
vt 0.125000 0.500000
vt 0.125000 0.750000
vt 0.875000 0.500000
vt 0.875000 0.750000
vn -0.7071 0.0000 -0.7071
vn 0.7071 0.0000 -0.7071
vn 0.7071 0.0000 0.7071
vn -0.7071 0.0000 0.7071
vn 0.0000 -1.0000 0.0000
vn 0.0000 1.0000 0.0000
usemtl None
s off
f 127/186/91 128/187/91 130/188/91 129/189/91
f 129/189/92 130/188/92 134/190/92 133/191/92
f 133/191/93 134/190/93 132/192/93 131/193/93
f 131/193/94 132/192/94 128/194/94 127/195/94
f 129/196/95 133/191/95 131/193/95 127/197/95
f 134/190/96 130/198/96 128/199/96 132/192/96
f 135/200/92 137/201/92 138/202/92 136/203/92
f 137/201/91 141/204/91 142/205/91 138/202/91
f 141/204/94 139/206/94 140/207/94 142/205/94
f 139/206/93 135/208/93 136/209/93 140/207/93
f 137/210/95 135/211/95 139/206/95 141/204/95
f 142/205/96 140/207/96 136/212/96 138/213/96
f 143/214/94 145/215/94 146/216/94 144/217/94
f 145/215/93 149/218/93 150/219/93 146/216/93
f 149/218/92 147/220/92 148/221/92 150/219/92
f 147/220/91 143/222/91 144/223/91 148/221/91
f 145/224/95 143/225/95 147/220/95 149/218/95
f 150/219/96 148/221/96 144/226/96 146/227/96
f 151/228/93 152/229/93 154/230/93 153/231/93
f 153/231/94 154/230/94 158/232/94 157/233/94
f 157/233/91 158/232/91 156/234/91 155/235/91
f 155/235/92 156/234/92 152/236/92 151/237/92
f 153/238/95 157/233/95 155/235/95 151/239/95
f 158/232/96 154/240/96 152/241/96 156/234/96
