# Blender v2.80 (sub 75) OBJ File: ''
# www.blender.org
mtllib grenn.mtl
o Sphere
v 0.000000 -0.000000 -0.500000
v 0.135299 0.561940 -0.135299
v 0.135299 0.461940 -0.135299
v 0.250000 0.353553 -0.250000
v 0.326641 0.191342 -0.326641
v 0.353553 -0.000000 -0.353553
v 0.326641 -0.191342 -0.326641
v 0.250000 -0.353553 -0.250000
v 0.135299 -0.461940 -0.135299
v 0.191342 0.461940 -0.000000
v 0.353553 0.353553 -0.000000
v 0.461940 0.191342 -0.000000
v 0.500000 -0.000000 -0.000000
v 0.461940 -0.191342 -0.000000
v 0.353553 -0.353553 -0.000000
v 0.191342 -0.461940 -0.000000
v 0.000000 -0.500000 -0.000000
v 0.135299 0.461940 0.135299
v 0.250000 0.353553 0.250000
v 0.326641 0.191342 0.326641
v 0.353553 -0.000000 0.353553
v 0.326641 -0.191342 0.326641
v 0.250000 -0.353553 0.250000
v 0.135299 -0.461940 0.135299
v 0.000000 0.461940 0.191342
v 0.000000 0.353553 0.353553
v 0.000000 0.191342 0.461940
v 0.000000 -0.000000 0.500000
v 0.000000 -0.191342 0.461940
v 0.000000 -0.353553 0.353553
v 0.000000 -0.461940 0.191342
v -0.135299 0.461940 0.135299
v -0.250000 0.353553 0.250000
v -0.326641 0.191342 0.326641
v -0.353553 -0.000000 0.353553
v -0.326641 -0.191342 0.326641
v -0.250000 -0.353553 0.250000
v -0.135299 -0.461940 0.135299
v -0.191342 0.461940 -0.000000
v -0.353553 0.353553 -0.000000
v -0.461940 0.191342 -0.000000
v -0.500000 -0.000000 -0.000000
v -0.461940 -0.191342 -0.000000
v -0.353553 -0.353553 -0.000000
v -0.191342 -0.461940 -0.000000
v -0.135299 0.461940 -0.135299
v -0.250000 0.353553 -0.250000
v -0.326641 0.191342 -0.326641
v -0.353553 -0.000000 -0.353553
v -0.326641 -0.191342 -0.326641
v -0.250000 -0.353553 -0.250000
v -0.135299 -0.461940 -0.135299
v -0.000000 0.461940 -0.191342
v -0.000000 0.353553 -0.353553
v -0.000000 0.191342 -0.461940
v -0.000000 -0.191342 -0.461940
v -0.000000 -0.353553 -0.353553
v -0.000000 -0.461940 -0.191342
v 0.191342 0.561940 -0.000000
v 0.135299 0.561940 0.135299
v 0.000000 0.561940 0.191342
v -0.135299 0.561940 0.135299
v -0.191342 0.561940 -0.000000
v -0.135299 0.561940 -0.135299
v -0.000000 0.561940 -0.191342
v 0.056227 0.598639 -0.056227
v 0.079517 0.598639 -0.000000
v 0.056227 0.598639 0.056227
v 0.000000 0.598639 0.079517
v -0.056227 0.598639 0.056227
v -0.079517 0.598639 -0.000000
v -0.056227 0.598639 -0.056227
v -0.000000 0.598639 -0.079517
v 0.184483 0.461940 0.254039
v 0.049184 0.461940 0.310082
v 0.184483 0.561940 0.254039
v 0.049184 0.561940 0.310082
v 0.196928 0.482634 0.363278
v 0.117627 0.482634 0.396126
v 0.196928 0.541246 0.363278
v 0.117627 0.541246 0.396126
v -0.001720 -0.000911 -0.300809
v 0.148280 0.211222 -0.150809
v 0.194265 0.113894 -0.196794
v 0.210412 -0.000911 -0.212941
v 0.194265 -0.115716 -0.196794
v 0.148280 -0.213043 -0.150809
v -0.001720 0.211222 0.211323
v -0.001720 0.113894 0.276354
v -0.001720 -0.000911 0.299190
v -0.001720 -0.115716 0.276354
v -0.001720 -0.213043 0.211323
v -0.151720 0.211222 0.149191
v -0.197704 0.113894 0.195175
v -0.213852 -0.000911 0.211323
v -0.197704 -0.115716 0.195175
v -0.151720 -0.213043 0.149191
v -0.001720 0.211222 -0.212941
v -0.001720 0.113894 -0.277973
v -0.001720 -0.115716 -0.277973
v -0.001720 -0.213043 -0.212941
v 0.212132 0.212132 -0.000000
v 0.277164 0.114805 -0.000000
v 0.300000 -0.000000 -0.000000
v 0.277164 -0.114805 -0.000000
v 0.212132 -0.212132 -0.000000
v 0.150000 0.212132 0.150000
v 0.195984 0.114805 0.195984
v 0.212132 -0.000000 0.212132
v 0.195984 -0.114805 0.195984
v 0.150000 -0.212132 0.150000
v -0.212132 0.212132 -0.000000
v -0.277164 0.114805 -0.000000
v -0.300000 -0.000000 -0.000000
v -0.277164 -0.114805 -0.000000
v -0.212132 -0.212132 -0.000000
v -0.150000 0.212132 -0.150000
v -0.195984 0.114805 -0.195984
v -0.212132 -0.000000 -0.212132
v -0.195984 -0.114805 -0.195984
v -0.150000 -0.212132 -0.150000
vt 0.750000 0.750000
vt 0.750000 0.875000
vt 0.625000 0.875000
vt 0.625000 0.750000
vt 0.750000 0.125000
vt 0.750000 0.250000
vt 0.625000 0.250000
vt 0.625000 0.125000
vt 0.125000 0.250000
vt 0.250000 0.250000
vt 0.250000 0.250000
vt 0.125000 0.250000
vt 0.625000 0.625000
vt 0.625000 0.500000
vt 0.625000 0.500000
vt 0.625000 0.625000
vt 0.125000 0.875000
vt 0.250000 0.875000
vt 0.250000 0.875000
vt 0.125000 0.875000
vt 0.687500 0.000000
vt 0.750000 0.375000
vt 0.750000 0.500000
vt 0.750000 0.500000
vt 0.750000 0.375000
vt 0.250000 0.375000
vt 0.250000 0.375000
vt 0.625000 0.375000
vt 0.500000 0.500000
vt 0.500000 0.375000
vt 0.500000 0.750000
vt 0.500000 0.625000
vt 0.000000 0.875000
vt 0.000000 0.875000
vt 0.562500 0.000000
vt 0.500000 0.125000
vt 0.500000 0.250000
vt 0.500000 0.875000
vt 0.437500 0.000000
vt 0.375000 0.125000
vt 0.000000 0.625000
vt 0.000000 0.750000
vt 0.000000 0.750000
vt 0.000000 0.625000
vt 0.375000 0.500000
vt 0.375000 0.375000
vt 0.375000 0.375000
vt 0.375000 0.500000
vt 0.375000 0.875000
vt 0.375000 0.750000
vt 0.375000 0.250000
vt 0.500000 0.625000
vt 0.500000 0.500000
vt 0.875000 0.625000
vt 0.875000 0.500000
vt 0.875000 0.500000
vt 0.875000 0.625000
vt 0.250000 0.875000
vt 0.250000 0.875000
vt 0.375000 0.625000
vt 0.250000 0.625000
vt 0.250000 0.500000
vt 0.250000 0.750000
vt 0.250000 0.125000
vt 0.875000 0.875000
vt 0.875000 0.875000
vt 0.750000 0.875000
vt 0.312500 0.000000
vt 0.125000 0.125000
vt 0.625000 0.750000
vt 0.750000 0.625000
vt 0.750000 0.625000
vt 0.625000 0.875000
vt 0.187500 0.000000
vt 0.750000 0.250000
vt 0.625000 0.250000
vt 0.250000 0.500000
vt 0.125000 0.750000
vt 0.125000 0.625000
vt 0.500000 0.875000
vt 0.062500 0.000000
vt 0.000000 0.125000
vt 0.125000 0.375000
vt 0.000000 0.375000
vt 0.000000 0.250000
vt 0.125000 0.500000
vt 0.000000 0.500000
vt 0.937500 0.000000
vt 1.000000 0.125000
vt 0.875000 0.125000
vt 0.375000 0.625000
vt 0.500000 0.750000
vt 1.000000 0.750000
vt 1.000000 0.875000
vt 0.875000 0.750000
vt 1.000000 0.250000
vt 0.875000 0.250000
vt 0.875000 0.750000
vt 0.375000 0.750000
vt 0.375000 0.875000
vt 0.875000 0.375000
vt 1.000000 0.875000
vt 0.812500 0.000000
vt 0.250000 0.875000
vt 0.125000 0.875000
vt 0.000000 0.875000
vt 0.750000 0.875000
vt 0.625000 0.875000
vt 0.875000 0.875000
vt 1.000000 0.875000
vt 0.500000 0.875000
vt 0.375000 0.875000
vt 0.375000 0.875000
vt 0.375000 0.875000
vt 0.250000 0.875000
vt 0.375000 0.875000
vt 0.375000 0.875000
vt 0.250000 0.875000
vt 0.625000 0.375000
vt 0.750000 0.750000
vt 0.125000 0.500000
vt 0.125000 0.375000
vt 0.250000 0.625000
vt 0.250000 0.750000
vt 0.125000 0.750000
vt 0.125000 0.625000
vt 0.500000 0.250000
vt 0.500000 0.375000
vt 0.375000 0.250000
vt 1.000000 0.250000
vt 1.000000 0.375000
vt 0.875000 0.375000
vt 0.875000 0.250000
vt 1.000000 0.500000
vt 1.000000 0.625000
vt 1.000000 0.750000
vt 0.000000 0.500000
vt 0.000000 0.375000
vt 0.000000 0.250000
vn 0.2243 0.8103 -0.5414
vn 0.2243 -0.8103 -0.5414
vn -0.2802 0.6812 0.6764
vn -0.7008 0.0018 -0.7134
vn -0.3827 0.0000 0.9239
vn 0.0805 -0.9776 -0.1945
vn 1.0000 0.0017 0.0086
vn -1.0000 -0.0049 0.0073
vn 0.9087 -0.1807 -0.3764
vn 0.7862 0.5253 -0.3256
vn -0.9239 0.0000 0.3827
vn 0.1945 -0.9776 -0.0805
vn 0.7862 -0.5253 -0.3256
vn 0.9087 0.1807 -0.3764
vn 0.5414 0.8103 -0.2243
vn 0.5414 -0.8103 -0.2243
vn 0.1945 -0.9776 0.0805
vn -0.0000 -0.0000 -1.0000
vn 0.7071 0.0000 -0.7071
vn 0.5414 0.8103 0.2243
vn 0.5414 -0.8103 0.2243
vn -0.0000 0.0000 1.0000
vn -0.7071 -0.0000 0.7071
vn 0.3764 0.1807 0.9087
vn 0.2243 0.8103 0.5414
vn 0.2243 -0.8103 0.5414
vn 0.3764 -0.1807 0.9087
vn 0.3256 0.5253 0.7862
vn -0.3827 0.0000 -0.9239
vn 0.0805 -0.9776 0.1945
vn 0.3256 -0.5253 0.7862
vn -0.2243 -0.8103 0.5414
vn -0.7017 0.0050 -0.7124
vn 1.0000 -0.0017 0.0086
vn 0.3827 0.0000 -0.9239
vn -0.0805 -0.9776 0.1945
vn 0.2803 0.6807 -0.6768
vn -1.0000 -0.0017 0.0086
vn -0.2243 0.8103 0.5414
vn -0.7862 0.5253 0.3256
vn 0.9239 0.0000 -0.3827
vn -0.1945 -0.9776 0.0805
vn -0.7862 -0.5253 0.3256
vn -0.9087 0.1807 0.3764
vn -0.5414 0.8103 0.2243
vn -0.5414 -0.8103 0.2243
vn -0.9087 -0.1807 0.3764
vn -0.1945 -0.9776 -0.0805
vn -0.5414 0.8103 -0.2243
vn -0.5414 -0.8103 -0.2243
vn 0.9239 0.0000 0.3827
vn -0.2243 0.8103 -0.5414
vn -0.2243 -0.8103 -0.5414
vn -0.3764 -0.1807 -0.9087
vn -0.3256 0.5253 -0.7862
vn -0.9239 0.0000 -0.3827
vn -0.0805 -0.9776 -0.1945
vn -0.3256 -0.5253 -0.7862
vn -0.3764 0.1807 -0.9087
vn -0.1281 0.9423 0.3093
vn -0.3093 0.9423 0.1281
vn 0.1281 0.9423 -0.3093
vn -0.1281 0.9423 -0.3093
vn -0.3093 0.9423 -0.1281
vn 0.3093 0.9423 -0.1281
vn 0.3093 0.9423 0.1281
vn 0.1281 0.9423 0.3093
vn 0.0000 1.0000 -0.0000
vn 0.0735 -0.9814 0.1775
vn 0.0000 -1.0000 0.0000
vn 0.3827 0.0000 0.9239
vn -0.7826 0.0000 0.6225
vn 0.0735 0.9814 0.1775
vn 0.9936 0.0000 -0.1132
vn 0.3764 -0.1807 -0.9087
vn 0.3256 0.5253 -0.7862
vn 0.3256 -0.5253 -0.7862
vn 0.3764 0.1807 -0.9087
vn -0.3764 -0.1807 0.9087
vn -0.3256 0.5253 0.7862
vn -0.3256 -0.5253 0.7862
vn -0.3764 0.1807 0.9087
vn -0.7008 -0.0018 -0.7134
vn 0.7124 -0.0051 0.7017
vn -0.7017 -0.0051 -0.7124
vn 0.7134 -0.0018 0.7007
vn 0.2820 -0.6760 -0.6808
vn -1.0000 0.0048 0.0072
vn 1.0000 -0.0049 0.0073
vn 0.7134 0.0018 0.7007
vn -0.2818 -0.6765 0.6804
vn -1.0000 0.0017 0.0086
vn 1.0000 0.0049 0.0073
vn 0.7125 0.0051 0.7017
vn 0.7862 -0.5253 0.3256
vn 0.9087 0.1807 0.3764
vn 0.9087 -0.1807 0.3764
vn 0.7862 0.5253 0.3256
vn -0.7862 -0.5253 -0.3256
vn -0.9087 0.1807 -0.3764
vn -0.9087 -0.1807 -0.3764
vn -0.7862 0.5253 -0.3256
vn 0.6786 -0.6786 0.2811
vn -0.6786 -0.6786 -0.2811
vn 0.6786 0.6786 0.2811
vn -0.6786 0.6786 -0.2811
usemtl None
s off
f 54/1/1 53/2/1 3/3/1 4/4/1
f 58/5/2 57/6/2 8/7/2 9/8/2
f 37/9/3 30/10/3 92/11/3 97/12/3
f 5/13/4 6/14/4 85/15/4 84/16/4
f 32/17/5 25/18/5 61/19/5 62/20/5
f 17/21/6 58/5/6 9/8/6
f 56/22/7 1/23/7 82/24/7 100/25/7
f 30/10/8 29/26/8 91/27/8 92/11/8
f 7/28/9 6/14/9 13/29/9 14/30/9
f 5/13/10 4/4/10 11/31/10 12/32/10
f 39/33/11 32/17/11 62/20/11 63/34/11
f 17/35/12 9/8/12 16/36/12
f 8/7/13 7/28/13 14/30/13 15/37/13
f 6/14/14 5/13/14 12/32/14 13/29/14
f 4/4/15 3/3/15 10/38/15 11/31/15
f 9/8/16 8/7/16 15/37/16 16/36/16
f 17/39/17 16/36/17 24/40/17
f 41/41/18 40/42/18 112/43/18 113/44/18
f 21/45/19 22/46/19 110/47/19 109/48/19
f 11/31/20 10/38/20 18/49/20 19/50/20
f 16/36/21 15/37/21 23/51/21 24/40/21
f 13/29/22 12/32/22 103/52/22 104/53/22
f 48/54/23 49/55/23 119/56/23 118/57/23
f 61/19/11 25/18/11 75/58/11 77/59/11
f 21/45/24 20/60/24 27/61/24 28/62/24
f 19/50/25 18/49/25 25/18/25 26/63/25
f 24/40/26 23/51/26 30/10/26 31/64/26
f 22/46/27 21/45/27 28/62/27 29/26/27
f 20/60/28 19/50/28 26/63/28 27/61/28
f 53/2/29 46/65/29 64/66/29 65/67/29
f 17/68/30 24/40/30 31/64/30
f 23/51/31 22/46/31 29/26/31 30/10/31
f 31/64/32 30/10/32 37/9/32 38/69/32
f 4/4/33 5/13/33 84/16/33 83/70/33
f 1/23/34 55/71/34 99/72/34 82/24/34
f 3/3/35 53/2/35 65/67/35 2/73/35
f 17/74/36 31/64/36 38/69/36
f 8/7/37 57/6/37 101/75/37 87/76/37
f 29/26/38 28/62/38 90/77/38 91/27/38
f 26/63/39 25/18/39 32/17/39 33/78/39
f 34/79/40 33/78/40 40/42/40 41/41/40
f 10/38/41 3/3/41 2/73/41 59/80/41
f 17/81/42 38/69/42 45/82/42
f 37/9/43 36/83/43 43/84/43 44/85/43
f 35/86/44 34/79/44 41/41/44 42/87/44
f 33/78/45 32/17/45 39/33/45 40/42/45
f 38/69/46 37/9/46 44/85/46 45/82/46
f 36/83/47 35/86/47 42/87/47 43/84/47
f 17/88/48 45/89/48 52/90/48
f 20/60/19 21/45/19 109/48/19 108/91/19
f 12/32/22 11/31/22 102/92/22 103/52/22
f 40/93/49 39/94/49 46/65/49 47/95/49
f 45/89/50 44/96/50 51/97/50 52/90/50
f 47/95/23 48/54/23 118/57/23 117/98/23
f 19/50/19 20/60/19 108/91/19 107/99/19
f 18/49/51 10/38/51 59/80/51 60/100/51
f 47/95/52 46/65/52 53/2/52 54/1/52
f 52/90/53 51/97/53 57/6/53 58/5/53
f 50/101/54 49/55/54 1/23/54 56/22/54
f 48/54/55 47/95/55 54/1/55 55/71/55
f 46/65/56 39/94/56 63/102/56 64/66/56
f 17/103/57 52/90/57 58/5/57
f 51/97/58 50/101/58 56/22/58 57/6/58
f 49/55/59 48/54/59 55/71/59 1/23/59
f 62/20/60 61/19/60 69/104/60 70/105/60
f 63/34/61 62/20/61 70/105/61 71/106/61
f 2/73/62 65/67/62 73/107/62 66/108/62
f 65/67/63 64/66/63 72/109/63 73/107/63
f 64/66/64 63/102/64 71/110/64 72/109/64
f 59/80/65 2/73/65 66/108/65 67/111/65
f 60/100/66 59/80/66 67/111/66 68/112/66
f 61/19/67 60/100/67 68/112/67 69/104/67
f 66/108/68 73/107/68 72/109/68 71/106/68 70/105/68 69/104/68 68/112/68 67/111/68
f 75/58/69 74/113/69 78/114/69 79/115/69
f 25/18/70 18/49/70 74/113/70 75/58/70
f 18/49/41 60/100/41 76/116/41 74/113/41
f 60/100/68 61/19/68 77/59/68 76/116/68
f 79/115/71 78/114/71 80/117/71 81/118/71
f 77/59/72 75/58/72 79/115/72 81/118/72
f 76/116/73 77/59/73 81/118/73 80/117/73
f 74/113/74 76/116/74 80/117/74 78/114/74
f 100/25/75 82/24/75 85/15/75 86/119/75
f 99/72/76 98/120/76 83/70/76 84/16/76
f 101/75/77 100/25/77 86/119/77 87/76/77
f 82/24/78 99/72/78 84/16/78 85/15/78
f 91/27/79 90/77/79 95/121/79 96/122/79
f 89/123/80 88/124/80 93/125/80 94/126/80
f 92/11/81 91/27/81 96/122/81 97/12/81
f 90/77/82 89/123/82 94/126/82 95/121/82
f 6/14/83 7/28/83 86/119/83 85/15/83
f 33/78/84 34/79/84 94/126/84 93/125/84
f 7/28/85 8/7/85 87/76/85 86/119/85
f 34/79/86 35/86/86 95/121/86 94/126/86
f 54/1/87 4/4/87 83/70/87 98/120/87
f 27/61/88 26/63/88 88/124/88 89/123/88
f 55/71/89 54/1/89 98/120/89 99/72/89
f 35/86/90 36/83/90 96/122/90 95/121/90
f 26/63/91 33/78/91 93/125/91 88/124/91
f 28/62/92 27/61/92 89/123/92 90/77/92
f 57/6/93 56/22/93 100/25/93 101/75/93
f 36/83/94 37/9/94 97/12/94 96/122/94
f 106/127/95 105/128/95 110/47/95 111/129/95
f 104/53/96 103/52/96 108/91/96 109/48/96
f 105/128/97 104/53/97 109/48/97 110/47/97
f 103/52/98 102/92/98 107/99/98 108/91/98
f 116/130/99 115/131/99 120/132/99 121/133/99
f 114/134/100 113/135/100 118/57/100 119/56/100
f 115/131/101 114/134/101 119/56/101 120/132/101
f 113/135/102 112/136/102 117/98/102 118/57/102
f 49/55/23 50/101/23 120/132/23 119/56/23
f 11/31/103 19/50/103 107/99/103 102/92/103
f 40/93/104 47/95/104 117/98/104 112/136/104
f 14/30/22 13/29/22 104/53/22 105/128/22
f 22/46/19 23/51/19 111/129/19 110/47/19
f 42/87/18 41/41/18 113/44/18 114/137/18
f 50/101/23 51/97/23 121/133/23 120/132/23
f 15/37/22 14/30/22 105/128/22 106/127/22
f 43/84/18 42/87/18 114/137/18 115/138/18
f 44/85/18 43/84/18 115/138/18 116/139/18
f 23/51/105 15/37/105 106/127/105 111/129/105
f 51/97/106 44/96/106 116/130/106 121/133/106
