# Blender v2.79 (sub 0) OBJ File: 'Lampu-Senpai.blend'
# www.blender.org
mtllib Lampu-Senpai.mtl
o Cube.001_Cube.004
v -0.248893 -0.355550 0.000000
v 0.000000 -0.355550 -0.248893
v 0.248893 -0.355550 0.000000
v 0.000000 -0.355550 0.248893
v 0.000000 -0.604442 0.000000
v 0.000000 -0.106657 0.000000
v -0.186670 -0.542219 0.000000
v -0.186670 -0.355550 0.186670
v -0.186670 -0.168880 0.000000
v -0.186670 -0.355550 -0.186670
v 0.000000 -0.542219 -0.186670
v 0.000000 -0.168880 -0.186670
v 0.186670 -0.355550 -0.186670
v 0.186670 -0.542219 0.000000
v 0.186670 -0.168880 0.000000
v 0.186670 -0.355550 0.186670
v 0.000000 -0.542219 0.186670
v 0.000000 -0.168880 0.186670
v -0.138274 -0.493823 0.138274
v -0.138274 -0.217276 0.138274
v -0.138274 -0.493823 -0.138274
v -0.138274 -0.217276 -0.138274
v 0.138274 -0.493823 0.138274
v 0.138274 -0.217276 0.138274
v 0.138274 -0.493823 -0.138274
v 0.138274 -0.217276 -0.138274
vn -1.0000 0.0000 0.0000
vn -0.7071 -0.7071 0.0000
vn -0.5773 -0.5773 0.5773
vn -0.7071 0.0000 0.7071
vn -0.5773 0.5773 0.5773
vn -0.7071 0.7071 0.0000
vn -0.5773 0.5773 -0.5773
vn -0.7071 0.0000 -0.7071
vn -0.5773 -0.5773 -0.5773
vn 0.0000 0.0000 -1.0000
vn 0.0000 -0.7071 -0.7071
vn 0.0000 0.7071 -0.7071
vn 0.5773 0.5773 -0.5773
vn 0.7071 0.0000 -0.7071
vn 0.5773 -0.5773 -0.5773
vn 1.0000 0.0000 0.0000
vn 0.7071 -0.7071 0.0000
vn 0.7071 0.7071 0.0000
vn 0.5773 0.5773 0.5773
vn 0.7071 0.0000 0.7071
vn 0.5773 -0.5773 0.5773
vn 0.0000 0.0000 1.0000
vn 0.0000 -0.7071 0.7071
vn 0.0000 0.7071 0.7071
vn 0.0000 -1.0000 0.0000
vn 0.0000 1.0000 0.0000
usemtl Material.005
s 1
f 1//1 7//2 19//3 8//4
f 1//1 8//4 20//5 9//6
f 1//1 9//6 22//7 10//8
f 1//1 10//8 21//9 7//2
f 2//10 11//11 21//9 10//8
f 2//10 10//8 22//7 12//12
f 2//10 12//12 26//13 13//14
f 2//10 13//14 25//15 11//11
f 3//16 14//17 25//15 13//14
f 3//16 13//14 26//13 15//18
f 3//16 15//18 24//19 16//20
f 3//16 16//20 23//21 14//17
f 4//22 17//23 23//21 16//20
f 4//22 16//20 24//19 18//24
f 4//22 18//24 20//5 8//4
f 4//22 8//4 19//3 17//23
f 5//25 7//2 21//9 11//11
f 5//25 11//11 25//15 14//17
f 5//25 14//17 23//21 17//23
f 5//25 17//23 19//3 7//2
f 6//26 15//18 26//13 12//12
f 6//26 12//12 22//7 9//6
f 6//26 9//6 20//5 18//24
f 6//26 18//24 24//19 15//18
o Cylinder
v -0.058399 -0.354048 0.000000
v -0.058399 4.321866 0.000000
v 0.000000 -0.354048 -0.058399
v 0.000000 4.321866 -0.058399
v 0.058399 4.321866 0.000000
v 0.058399 -0.354048 0.000000
v 0.000000 4.321866 0.058399
v 0.000000 -0.354048 0.058399
vn -0.7071 0.0000 0.7071
vn -0.7071 0.0000 -0.7071
vn 0.7071 0.0000 -0.7071
vn 0.7071 0.0000 0.7071
vn 0.0000 1.0000 0.0000
vn 0.0000 -1.0000 -0.0000
usemtl Material.002
s off
f 34//27 33//27 28//27 27//27
f 27//28 28//28 30//28 29//28
f 29//29 30//29 31//29 32//29
f 32//30 31//30 33//30 34//30
f 33//31 31//31 30//31 28//31
f 34//32 27//32 29//32 32//32
o Cube_Cube.001
v 0.954636 -0.438993 -0.000000
v 0.958348 0.438993 -0.000000
v 0.958348 0.438993 -0.000000
v 0.954636 -0.438993 -0.000000
v 0.958348 0.438993 -0.000000
v 0.958348 0.438993 -0.000000
v 0.675030 -0.438993 -0.675030
v 0.677654 0.438993 -0.677654
v 0.677654 0.438993 -0.677654
v 0.000000 -0.438993 -0.954636
v -0.000000 0.438993 -0.958348
v -0.000000 0.438993 -0.958348
v 0.675030 -0.438993 -0.675030
v 0.677654 0.438993 -0.677654
v 0.677654 0.438993 -0.677654
v 0.675030 -0.438993 0.675030
v 0.677654 0.438993 0.677654
v 0.677654 0.438993 0.677654
v 0.675030 -0.438993 0.675030
v 0.677654 0.438993 0.677654
v 0.677654 0.438993 0.677654
v -0.677655 0.438993 0.677654
v -0.675030 -0.438993 0.675029
v -0.677655 0.438993 0.677654
v -0.677655 0.438993 0.677654
v -0.677655 0.438993 0.677654
v -0.675030 -0.438993 0.675029
v -0.958348 0.438993 -0.000001
v -0.675029 -0.438993 -0.675030
v -0.677653 0.438993 -0.677655
v -0.675029 -0.438993 -0.675030
v -0.677653 0.438993 -0.677655
v -0.677653 0.438993 -0.677655
v 0.000000 0.980058 -0.792981
v 0.000000 -0.994193 -0.797631
v -0.564010 -0.994193 -0.564011
v -0.560721 0.980058 -0.560723
v -0.560721 0.980058 -0.560723
v -0.564010 -0.994193 -0.564011
v -0.792981 0.980058 -0.000001
v -0.797631 -0.994193 -0.000001
v -0.797631 -0.994193 -0.000001
v -0.792981 0.980058 -0.000001
v -0.560722 0.980058 0.560722
v -0.564011 -0.994193 0.564010
v -0.560722 0.980058 0.560722
v -0.564011 -0.994193 0.564010
v -0.000000 -0.994193 0.797631
v -0.000000 0.980058 0.792981
v -0.000000 0.980058 0.792981
v -0.000000 -0.994193 0.797631
v 0.560722 0.980058 0.560722
v 0.564011 -0.994193 0.564010
v 0.560722 0.980058 0.560722
v 0.564011 -0.994193 0.564010
v 0.792981 0.980058 -0.000000
v 0.797631 -0.994193 -0.000000
v 0.792981 0.980058 -0.000000
v 0.797631 -0.994193 -0.000000
v 0.564011 -0.994193 -0.564011
v 0.560722 0.980058 -0.560722
v 0.560722 0.980058 -0.560722
v 0.564011 -0.994193 -0.564011
v 0.000000 0.980058 -0.792981
v 0.000000 -0.994193 -0.797631
v -0.000000 0.438993 0.958348
v -0.000000 0.438993 0.958348
v -0.000000 -0.438993 0.954636
v -0.000000 0.438993 0.958348
v -0.000000 -0.438993 0.954636
v -0.000000 0.438993 0.958348
v -0.958348 0.438993 -0.000001
v -0.958348 0.438993 -0.000001
v -0.954636 -0.438993 -0.000001
v -0.958348 0.438993 -0.000001
v -0.954636 -0.438993 -0.000001
v -0.677653 0.438993 -0.677655
v -0.000000 0.438993 -0.958348
v -0.000000 0.438993 -0.958348
v 0.000000 -0.438993 -0.954636
v 0.000000 0.980058 -0.792981
v -0.560721 0.980058 -0.560723
v 0.560722 0.980058 0.560722
v 0.560722 0.980058 -0.560722
v 0.000000 0.980058 -0.792981
v 0.792981 0.980058 -0.000000
v 0.792981 0.980058 -0.000000
v -0.000000 0.980058 0.792981
v -0.000000 0.980058 0.792981
v -0.792981 0.980058 -0.000001
v -0.560721 0.980058 -0.560723
v -0.560722 0.980058 0.560722
v -0.560722 0.980058 0.560722
v -0.792981 0.980058 -0.000001
v 0.560722 0.980058 -0.560722
v 0.560722 0.980058 0.560722
v -0.564010 -0.994193 -0.564011
v -0.797631 -0.994193 -0.000001
v -0.564011 -0.994193 0.564010
v -0.564011 -0.994193 0.564010
v 0.564011 -0.994193 0.564010
v 0.564011 -0.994193 0.564010
v 0.564011 -0.994193 -0.564011
v 0.564011 -0.994193 -0.564011
v 0.797631 -0.994193 -0.000000
v 0.797631 -0.994193 -0.000000
v -0.000000 -0.994193 0.797631
v -0.000000 -0.994193 0.797631
v -0.797631 -0.994193 -0.000001
v -0.564010 -0.994193 -0.564011
v 0.000000 -0.994193 -0.797631
v 0.000000 -0.994193 -0.797631
v 0.000000 1.342273 -0.546984
v -0.546983 1.342273 -0.000001
v -0.546983 1.342273 -0.000001
v -0.386776 1.342273 0.386775
v -0.000000 1.342273 0.546983
v 0.546983 1.342273 -0.000000
v 0.386776 1.342273 -0.386776
v 0.386776 1.342273 -0.386776
v 0.000000 1.342273 -0.546984
v 0.546983 1.342273 -0.000000
v 0.386776 1.342273 0.386776
v 0.386776 1.342273 0.386776
v -0.000000 1.342273 0.546983
v -0.386776 1.342273 0.386775
v -0.386775 1.342273 -0.386776
v -0.386775 1.342273 -0.386776
v 0.000000 -1.120251 -0.574858
v -0.406486 -1.120251 -0.406487
v -0.574858 -1.120251 -0.000001
v -0.574858 -1.120251 -0.000001
v -0.406486 -1.120251 0.406486
v -0.406486 -1.120251 0.406486
v -0.000000 -1.120251 0.574858
v 0.406486 -1.120251 0.406486
v 0.406486 -1.120251 0.406486
v 0.574858 -1.120251 -0.000000
v 0.406486 -1.120251 -0.406486
v 0.406486 -1.120251 -0.406486
v 0.000000 -1.120251 -0.574858
v 0.574858 -1.120251 -0.000000
v -0.000000 -1.120251 0.574858
v -0.406486 -1.120251 -0.406487
v 0.000000 -1.338084 -0.504339
v 0.000000 -1.338084 -0.504339
v -0.356621 -1.338084 -0.356622
v -0.504339 -1.338084 -0.000001
v -0.504339 -1.338084 -0.000001
v -0.356621 -1.338084 0.356621
v -0.000000 -1.338084 0.504339
v 0.356621 -1.338084 0.356621
v 0.504339 -1.338084 -0.000000
v 0.356621 -1.338084 -0.356621
v 0.356621 -1.338084 -0.356621
v 0.504339 -1.338084 -0.000000
v 0.356621 -1.338084 0.356621
v -0.000000 -1.338084 0.504339
v -0.356621 -1.338084 0.356621
v -0.356621 -1.338084 -0.356622
v 0.564011 -0.994193 0.564010
v -0.797631 -0.994193 -0.000001
v -0.564010 -0.994193 -0.564011
v -0.564011 -0.994193 0.564010
v -0.000000 -0.994193 0.797631
v 0.000000 -0.994193 -0.797631
v -0.000000 -0.994193 0.797631
v 0.564011 -0.994193 -0.564011
v -0.564011 -0.994193 0.564010
v 0.000000 -0.994193 -0.797631
v -0.797631 -0.994193 -0.000001
v -0.564010 -0.994193 -0.564011
v 0.797631 -0.994193 -0.000000
v 0.564011 -0.994193 -0.564011
v 0.564011 -0.994193 0.564010
v 0.797631 -0.994193 -0.000000
v 0.560722 0.980058 -0.560722
v 0.792981 0.980058 -0.000000
v 0.000000 0.980058 -0.792981
v -0.560721 0.980058 -0.560723
v -0.560722 0.980058 0.560722
v -0.792981 0.980058 -0.000001
v 0.560722 0.980058 -0.560722
v 0.560722 0.980058 0.560722
v -0.560721 0.980058 -0.560723
v -0.560722 0.980058 0.560722
v -0.792981 0.980058 -0.000001
v -0.000000 0.980058 0.792981
v -0.000000 0.980058 0.792981
v 0.792981 0.980058 -0.000000
v 0.560722 0.980058 0.560722
v 0.000000 0.980058 -0.792981
v -0.406486 -1.120251 -0.406487
v 0.406486 -1.120251 -0.406486
v 0.406486 -1.120251 -0.406486
v -0.574858 -1.120251 -0.000001
v -0.574858 -1.120251 -0.000001
v -0.406486 -1.120251 0.406486
v -0.406486 -1.120251 0.406486
v -0.000000 -1.120251 0.574858
v -0.406486 -1.120251 -0.406487
v 0.574858 -1.120251 -0.000000
v 0.406486 -1.120251 0.406486
v 0.000000 -1.120251 -0.574858
v 0.574858 -1.120251 -0.000000
v 0.406486 -1.120251 0.406486
v -0.000000 -1.120251 0.574858
v 0.000000 -1.120251 -0.574858
v -0.000000 1.125294 0.558841
v 0.395160 1.125294 0.395160
v 0.395160 1.125294 -0.395160
v -0.558841 1.125294 -0.000001
v -0.558841 1.125294 -0.000001
v -0.395160 1.125294 0.395160
v -0.000000 1.125294 0.558841
v -0.395159 1.125294 -0.395161
v 0.558841 1.125294 -0.000000
v 0.000000 1.125294 -0.558841
v 0.395160 1.125294 0.395160
v 0.395160 1.125294 -0.395160
v -0.395160 1.125294 0.395160
v 0.000000 1.125294 -0.558841
v -0.395159 1.125294 -0.395161
v 0.558841 1.125294 -0.000000
v -0.000000 1.125294 0.558841
v 0.395160 1.125294 -0.395160
v -0.558841 1.125294 -0.000001
v -0.558841 1.125294 -0.000001
v -0.395160 1.125294 0.395160
v -0.395159 1.125294 -0.395161
v -0.395160 1.125294 0.395160
v 0.558841 1.125294 -0.000000
v 0.395160 1.125294 0.395160
v 0.558841 1.125294 -0.000000
v 0.395160 1.125294 -0.395160
v -0.000000 1.125294 0.558841
v -0.395159 1.125294 -0.395161
v 0.000000 1.125294 -0.558841
v 0.395160 1.125294 0.395160
v 0.000000 1.125294 -0.558841
v 0.406486 -1.120251 -0.406486
v -0.406486 -1.120251 0.406486
v 0.574858 -1.120251 -0.000000
v 0.406486 -1.120251 0.406486
v -0.574858 -1.120251 -0.000001
v 0.000000 -1.120251 -0.574858
v 0.406486 -1.120251 -0.406486
v 0.000000 -1.120251 -0.574858
v 0.406486 -1.120251 0.406486
v -0.406486 -1.120251 -0.406487
v -0.574858 -1.120251 -0.000001
v -0.406486 -1.120251 0.406486
v -0.000000 -1.120251 0.574858
v -0.000000 -1.120251 0.574858
v -0.406486 -1.120251 -0.406487
v 0.574858 -1.120251 -0.000000
vn -1.0000 0.0042 0.0000
vn 0.3827 -0.0039 0.9239
vn 1.0000 0.0000 0.0000
vn 0.0000 0.0000 1.0000
vn -0.9623 0.2721 0.0000
vn 0.3703 -0.2528 0.8939
vn -0.3703 -0.2528 0.8939
vn -0.3827 -0.0039 0.9239
vn -1.0000 0.0000 0.0000
vn 0.0000 0.2721 -0.9623
vn 0.0000 0.0042 -1.0000
vn -0.3827 -0.0039 -0.9239
vn -0.3703 -0.2528 -0.8939
vn 0.0000 0.0000 -1.0000
vn 0.9239 -0.0039 0.3827
vn 0.8939 -0.2528 0.3703
vn -0.9382 0.0000 0.3461
vn -0.9239 -0.0039 0.3827
vn -0.8939 -0.2528 0.3703
vn 1.0000 0.0042 0.0000
vn -0.9239 -0.0039 -0.3827
vn 0.9623 0.2721 0.0000
vn -0.8939 -0.2528 -0.3703
vn 0.8939 -0.2528 -0.3703
vn 0.9239 -0.0039 -0.3827
vn 0.3703 -0.2528 -0.8939
vn 0.3827 -0.0039 -0.9239
vn 0.0000 -0.2721 -0.9623
vn 0.0000 -0.0042 -1.0000
vn -0.9227 0.0504 0.3822
vn 0.3822 0.0504 -0.9227
vn 0.3822 0.0504 0.9227
vn 0.9227 0.0504 -0.3822
vn -0.3822 0.0504 0.9227
vn -0.3822 0.0504 -0.9227
vn -0.9227 0.0504 -0.3822
vn 0.9227 0.0504 0.3822
vn 0.0000 -0.0546 -0.9985
vn 0.8851 -0.2865 -0.3666
vn 0.0000 0.3080 0.9514
vn -0.3666 -0.2865 -0.8851
vn -0.8851 -0.2865 -0.3666
vn 0.3666 -0.2865 -0.8851
vn -0.9514 -0.3080 0.0000
vn 0.9514 -0.3080 0.0000
vn -0.8851 -0.2865 0.3666
vn 0.8851 -0.2865 0.3666
vn 0.3666 -0.2865 0.8851
vn 0.0000 -0.3080 0.9514
vn -0.3666 -0.2865 0.8851
vn 0.0000 0.0413 -0.9991
vn 0.3683 0.2717 -0.8891
vn 0.8891 0.2717 -0.3683
vn -0.9563 -0.2923 0.0000
vn 0.8891 0.2717 0.3683
vn 0.3683 0.2717 0.8891
vn -0.3683 0.2717 -0.8891
vn -0.3683 0.2717 0.8891
vn -0.8891 0.2717 0.3683
vn -0.8891 0.2717 -0.3683
vn 0.9563 -0.2923 0.0000
vn -0.5271 -0.8498 0.0000
vn 0.5271 -0.8498 0.0000
vn -0.5150 0.8302 0.2133
vn 0.2133 0.8302 -0.5150
vn 0.2133 0.8302 0.5150
vn 0.5150 0.8302 -0.2133
vn 0.0000 -0.8498 0.5271
vn -0.2133 0.8302 0.5150
vn -0.2133 0.8302 -0.5150
vn -0.5150 0.8302 -0.2133
vn 0.5150 0.8302 0.2133
vn 0.0000 0.8498 0.5271
vn 0.4925 0.8703 0.0000
vn 0.1999 -0.8528 -0.4825
vn 0.4925 -0.8703 0.0000
vn 0.1999 -0.8528 0.4825
vn -0.4825 -0.8528 0.1999
vn 0.4825 -0.8528 -0.1999
vn 0.0000 -0.8703 -0.4925
vn 0.0000 -0.8703 0.4925
vn -0.4825 -0.8528 -0.1999
vn 0.4825 -0.8528 0.1999
vn -0.1999 -0.8528 0.4825
vn -0.1999 -0.8528 -0.4825
usemtl Material.001
s off
f 38//33 39//33 36//33 35//33
f 53//34 55//34 101//34 102//34
f 55//35 54//35 100//35 101//35
f 209//36 50//36 53//36 195//36
f 50//36 51//36 55//36 53//36
f 51//36 52//36 54//36 55//36
f 36//35 37//35 52//35 51//35
f 115//36 68//36 98//36 119//36
f 206//36 63//36 65//36 197//36
f 203//36 57//36 61//36 198//36
f 57//36 56//36 59//36 61//36
f 56//36 58//36 60//36 59//36
f 207//37 38//37 35//37 210//37
f 195//38 53//38 102//38 201//38
f 199//39 104//39 57//39 203//39
f 104//40 103//40 56//40 57//40
f 103//41 105//41 58//41 56//41
f 201//42 102//42 104//42 199//42
f 102//43 101//43 103//43 104//43
f 39//41 40//41 37//41 36//41
f 65//44 66//44 113//44 114//44
f 197//45 65//45 114//45 200//45
f 66//36 67//36 112//36 113//36
f 119//36 98//36 96//36 129//36
f 129//36 96//36 95//36 118//36
f 101//46 100//46 105//46 103//46
f 118//36 95//36 92//36 120//36
f 63//36 111//36 66//36 65//36
f 35//47 36//47 51//47 50//47
f 120//36 92//36 90//36 121//36
f 210//48 35//48 50//48 209//48
f 121//36 90//36 88//36 117//36
f 59//49 60//49 62//49 109//49
f 117//36 88//36 86//36 130//36
f 61//50 59//50 109//50 110//50
f 130//36 86//36 84//36 122//36
f 125//36 71//36 68//36 115//36
f 122//36 84//36 83//36 123//36
f 109//35 62//35 106//35 107//35
f 198//51 61//51 110//51 205//51
f 123//36 83//36 80//36 127//36
f 110//52 109//52 107//52 108//52
f 127//36 80//36 78//36 126//36
f 107//41 106//41 64//41 111//41
f 126//36 78//36 77//36 128//36
f 108//53 107//53 111//53 63//53
f 205//54 110//54 108//54 196//54
f 111//36 64//36 67//36 66//36
f 124//36 74//36 72//36 116//36
f 196//55 108//55 63//55 206//55
f 128//36 77//36 74//36 124//36
f 116//36 72//36 71//36 125//36
f 208//56 41//56 38//56 207//56
f 41//57 42//57 39//57 38//57
f 42//35 43//35 40//35 39//35
f 202//36 47//36 41//36 208//36
f 47//36 48//36 42//36 41//36
f 48//36 49//36 43//36 42//36
f 204//58 44//58 47//58 202//58
f 44//59 45//59 48//59 47//59
f 45//36 46//36 49//36 48//36
f 200//60 114//60 44//60 204//60
f 114//61 113//61 45//61 44//61
f 113//36 112//36 46//36 45//36
f 219//36 116//36 125//36 214//36
f 216//36 128//36 124//36 221//36
f 221//36 124//36 116//36 219//36
f 220//36 126//36 128//36 216//36
f 215//36 127//36 126//36 220//36
f 222//36 123//36 127//36 215//36
f 223//36 122//36 123//36 222//36
f 214//36 125//36 115//36 226//36
f 218//36 130//36 122//36 223//36
f 225//36 117//36 130//36 218//36
f 224//36 121//36 117//36 225//36
f 212//36 120//36 121//36 224//36
f 211//36 118//36 120//36 212//36
f 217//36 129//36 118//36 211//36
f 213//36 119//36 129//36 217//36
f 226//36 115//36 119//36 213//36
f 69//36 146//36 145//36 99//36
f 99//36 145//36 137//36 97//36
f 97//36 137//36 138//36 94//36
f 94//36 138//36 139//36 93//36
f 75//36 143//36 144//36 73//36
f 76//36 132//36 143//36 75//36
f 79//36 133//36 132//36 76//36
f 91//36 140//36 136//36 89//36
f 70//36 131//36 146//36 69//36
f 85//36 141//36 142//36 82//36
f 82//36 142//36 134//36 81//36
f 87//36 135//36 141//36 85//36
f 93//36 139//36 140//36 91//36
f 81//36 134//36 133//36 79//36
f 73//36 144//36 131//36 70//36
f 89//36 136//36 135//36 87//36
f 258//36 251//36 152//36 156//36
f 254//36 245//36 154//36 153//36
f 247//36 246//36 149//36 148//36
f 246//62 255//62 150//62 149//62
f 257//36 250//36 161//36 162//36
f 245//63 252//63 155//63 154//63
f 249//64 244//64 158//64 151//64
f 251//65 254//65 153//65 152//65
f 255//36 248//36 160//36 150//36
f 252//36 256//36 147//36 155//36
f 244//36 253//36 157//36 158//36
f 248//66 243//66 159//66 160//66
f 256//67 257//67 162//67 147//67
f 250//68 247//68 148//68 161//68
f 253//69 258//69 156//69 157//69
f 243//70 249//70 151//70 159//70
f 229//36 228//36 173//36 174//36
f 231//36 230//36 166//36 165//36
f 233//36 232//36 167//36 168//36
f 235//36 227//36 164//36 178//36
f 238//36 229//36 174//36 175//36
f 236//36 239//36 176//36 172//36
f 240//36 234//36 169//36 170//36
f 232//36 231//36 165//36 167//36
f 228//36 236//36 172//36 173//36
f 242//36 238//36 175//36 163//36
f 234//36 241//36 177//36 169//36
f 237//36 240//36 170//36 171//36
f 230//36 235//36 178//36 166//36
f 239//36 237//36 171//36 176//36
f 241//36 233//36 168//36 177//36
f 227//36 242//36 163//36 164//36
f 173//71 172//71 187//71 188//71
f 163//72 175//72 179//72 180//72
f 164//73 163//73 180//73 181//73
f 166//74 178//74 194//74 182//74
f 174//36 173//36 188//36 189//36
f 175//75 174//75 189//75 179//75
f 165//76 166//76 182//76 183//76
f 178//36 164//36 181//36 194//36
f 172//77 176//77 190//77 187//77
f 167//78 165//78 183//78 184//78
f 176//79 171//79 191//79 190//79
f 168//36 167//36 184//36 193//36
f 171//36 170//36 186//36 191//36
f 170//80 169//80 185//80 186//80
f 169//81 177//81 192//81 185//81
f 177//82 168//82 193//82 192//82
f 146//36 200//36 204//36 145//36
f 145//36 204//36 202//36 137//36
f 137//36 202//36 208//36 138//36
f 138//36 208//36 207//36 139//36
f 143//36 196//36 206//36 144//36
f 132//36 205//36 196//36 143//36
f 133//36 198//36 205//36 132//36
f 140//36 210//36 209//36 136//36
f 131//36 197//36 200//36 146//36
f 141//36 201//36 199//36 142//36
f 142//36 199//36 203//36 134//36
f 135//36 195//36 201//36 141//36
f 139//36 207//36 210//36 140//36
f 134//36 203//36 198//36 133//36
f 144//36 206//36 197//36 131//36
f 136//36 209//36 195//36 135//36
f 112//83 226//83 213//83 46//83
f 46//84 213//84 217//84 49//84
f 49//36 217//36 211//36 43//36
f 43//85 211//85 212//85 40//85
f 40//86 212//86 224//86 37//86
f 37//87 224//87 225//87 52//87
f 52//36 225//36 218//36 54//36
f 54//88 218//88 223//88 100//88
f 67//89 214//89 226//89 112//89
f 100//36 223//36 222//36 105//36
f 105//90 222//90 215//90 58//90
f 58//36 215//36 220//36 60//36
f 60//91 220//91 216//91 62//91
f 106//92 221//92 219//92 64//92
f 62//93 216//93 221//93 106//93
f 64//36 219//36 214//36 67//36
f 284//36 282//36 242//36 227//36
f 288//36 276//36 233//36 241//36
f 290//36 278//36 237//36 239//36
f 285//36 289//36 235//36 230//36
f 278//36 283//36 240//36 237//36
f 287//36 288//36 241//36 234//36
f 282//36 280//36 238//36 242//36
f 281//36 277//36 236//36 228//36
f 286//36 279//36 231//36 232//36
f 283//36 287//36 234//36 240//36
f 277//36 290//36 239//36 236//36
f 280//36 275//36 229//36 238//36
f 289//36 284//36 227//36 235//36
f 276//36 286//36 232//36 233//36
f 279//36 285//36 230//36 231//36
f 275//36 281//36 228//36 229//36
f 259//36 270//36 249//36 243//36
f 273//36 266//36 258//36 253//36
f 271//36 261//36 247//36 250//36
f 274//36 264//36 257//36 256//36
f 263//36 259//36 243//36 248//36
f 267//36 273//36 253//36 244//36
f 272//36 274//36 256//36 252//36
f 265//36 263//36 248//36 255//36
f 268//36 260//36 254//36 251//36
f 270//36 267//36 244//36 249//36
f 269//36 272//36 252//36 245//36
f 264//36 271//36 250//36 257//36
f 262//36 265//36 255//36 246//36
f 261//36 262//36 246//36 247//36
f 260//36 269//36 245//36 254//36
f 266//36 268//36 251//36 258//36
f 90//94 92//94 268//94 266//94
f 95//36 96//36 269//36 260//36
f 74//95 77//95 262//95 261//95
f 77//96 78//96 265//96 262//96
f 71//36 72//36 271//36 264//36
f 96//97 98//97 272//97 269//97
f 84//98 86//98 267//98 270//98
f 92//99 95//99 260//99 268//99
f 78//36 80//36 263//36 265//36
f 98//100 68//100 274//100 272//100
f 86//36 88//36 273//36 267//36
f 80//101 83//101 259//101 263//101
f 68//102 71//102 264//102 274//102
f 72//103 74//103 261//103 271//103
f 88//104 90//104 266//104 273//104
f 83//105 84//105 270//105 259//105
f 97//36 94//36 281//36 275//36
f 76//106 75//106 285//106 279//106
f 81//36 79//36 286//36 276//36
f 73//36 70//36 284//36 289//36
f 99//107 97//107 275//107 280//107
f 93//108 91//108 290//108 277//108
f 87//109 85//109 287//109 283//109
f 79//110 76//110 279//110 286//110
f 94//111 93//111 277//111 281//111
f 69//112 99//112 280//112 282//112
f 85//113 82//113 288//113 287//113
f 89//36 87//36 283//36 278//36
f 75//114 73//114 289//114 285//114
f 91//115 89//115 278//115 290//115
f 82//116 81//116 276//116 288//116
f 70//117 69//117 282//117 284//117
o Cylinder.001_Cylinder.003
v -0.058399 1.211336 -0.527405
v -0.058399 1.211336 0.527405
v 0.000000 1.269735 -0.527405
v 0.000000 1.269735 0.527405
v 0.058399 1.211336 0.527405
v 0.058399 1.211336 -0.527405
v 0.000000 1.152937 0.527405
v 0.000000 1.152937 -0.527405
vn -0.7071 -0.7071 0.0000
vn -0.7071 0.7071 0.0000
vn 0.7071 0.7071 0.0000
vn 0.7071 -0.7071 0.0000
vn -0.0000 0.0000 1.0000
vn 0.0000 0.0000 -1.0000
usemtl Material.003
s off
f 298//118 297//118 292//118 291//118
f 291//119 292//119 294//119 293//119
f 293//120 294//120 295//120 296//120
f 296//121 295//121 297//121 298//121
f 297//122 295//122 294//122 292//122
f 298//123 291//123 293//123 296//123
o Cylinder.002_Cylinder.004
v -0.527405 1.211336 0.058399
v 0.527405 1.211336 0.058399
v -0.527405 1.269735 0.000000
v 0.527405 1.269735 -0.000000
v 0.527405 1.211336 -0.058399
v -0.527405 1.211336 -0.058399
v 0.527405 1.152937 -0.000000
v -0.527405 1.152937 0.000000
vn 0.0000 -0.7071 0.7071
vn 0.0000 0.7071 0.7071
vn 0.0000 0.7071 -0.7071
vn -0.0000 -0.7071 -0.7071
vn 1.0000 -0.0000 0.0000
vn -1.0000 -0.0000 0.0000
usemtl Material.004
s off
f 306//124 305//124 300//124 299//124
f 299//125 300//125 302//125 301//125
f 301//126 302//126 303//126 304//126
f 304//127 303//127 305//127 306//127
f 305//128 303//128 302//128 300//128
f 306//129 299//129 301//129 304//129
