# Blender v2.81 (sub 16) OBJ File: ''
# www.blender.org
mtllib mini miss fins.mtl
v 0.189809 -0.780770 -0.000000
v 0.000000 -0.780770 0.189809
v -0.189809 -0.780770 -0.000000
v -0.000000 -0.780770 -0.189809
v -0.000000 0.123082 -0.000000
v -0.278678 0.016937 -0.278678
v -0.379760 -0.860311 -0.278678
v -0.278678 -0.860311 -0.379760
v 0.379760 -0.860311 -0.278678
v 0.278678 0.016937 -0.278678
v 0.278678 -0.860311 -0.379760
v 0.379760 -0.860311 0.278678
v 0.278678 -0.860311 0.379760
v 0.278678 0.016937 0.278678
v -0.285417 -0.047241 0.285417
v -0.366282 -0.828222 0.285417
v -0.285417 -0.828222 0.366282
vt 0.250000 0.490000
vt 0.250000 0.250000
vt 0.250000 0.250000
vt 0.250000 0.490000
vt 0.750000 0.010000
vt 0.990000 0.250000
vt 0.990000 0.250000
vt 0.750000 0.010000
vt 0.010000 0.250000
vt 0.010000 0.250000
vt 0.250000 0.250000
vt 0.750000 0.490000
vt 0.510000 0.250000
vt 0.510000 0.250000
vt 0.750000 0.490000
vt 0.250000 0.010000
vt 0.750000 0.010000
vt 0.510000 0.250000
vt 0.250000 0.010000
vt 0.010000 0.250000
vt 0.250000 0.250000
vt 0.250000 0.490000
vt 0.490000 0.250000
vt 0.490000 0.250000
vt 0.750000 0.490000
vt 0.990000 0.250000
vt 0.490000 0.250000
vt 0.250000 0.250000
vt 0.250000 0.010000
vn 0.7797 0.1273 -0.6131
vn 0.1017 -0.9896 -0.1017
vn 0.6131 0.1273 -0.7797
vn -0.1650 -0.9724 0.1650
vn 0.0000 -1.0000 0.0000
vn -0.7048 0.0812 -0.7048
vn 0.1650 -0.9724 0.1650
vn -0.7797 0.1273 0.6131
vn 0.7048 0.0812 -0.7048
vn -0.6131 0.1273 -0.7797
vn 0.7797 0.1273 0.6131
vn 0.7048 0.0812 0.7048
vn -0.6131 0.1273 0.7797
vn -0.1650 -0.9724 -0.1650
vn -0.7052 0.0730 0.7052
vn 0.5940 0.1276 0.7943
vn -0.7943 0.1276 -0.5940
usemtl None
s off
f 1/1/1 5/2/1 14/3/1 12/4/1
f 3/5/2 2/6/2 17/7/2 16/8/2
f 5/2/3 4/9/3 8/10/3 6/11/3
f 1/12/4 4/13/4 11/14/4 9/15/4
f 1/12/5 2/6/5 3/5/5 4/13/5
f 7/16/6 6/11/6 8/10/6
f 4/13/7 3/5/7 7/17/7 8/18/7
f 3/19/8 5/2/8 6/11/8 7/16/8
f 11/20/9 10/21/9 9/22/9
f 4/9/10 5/2/10 10/21/10 11/20/10
f 5/2/11 1/1/11 9/22/11 10/21/11
f 12/4/12 14/3/12 13/23/12
f 5/2/13 2/24/13 13/23/13 14/3/13
f 2/6/14 1/12/14 12/25/14 13/26/14
f 17/27/15 15/28/15 16/29/15
f 2/24/16 5/2/16 15/28/16 17/27/16
f 5/2/17 3/19/17 16/29/17 15/28/17
