# Blender v2.81 (sub 16) OBJ File: ''
# www.blender.org
mtllib mini miss.mtl
v -0.296002 -0.875161 -0.296002
v 0.296002 -0.875161 -0.296002
v 0.296002 -0.875161 0.296002
v -0.296002 -0.875161 0.296002
v 0.000000 0.785843 0.000000
v 0.117484 0.374314 0.000000
v 0.294101 -0.616764 0.176617
v 0.294101 -0.616764 -0.176617
v -0.294101 -0.616764 -0.176617
v -0.117484 0.374314 0.000000
v -0.294101 -0.616764 0.176617
v -0.176617 -0.616764 -0.294101
v 0.176617 -0.616764 -0.294101
v -0.000000 0.374314 -0.117484
v -0.000000 0.374314 0.117484
v 0.176617 -0.616764 0.294101
v -0.176617 -0.616764 0.294101
v 0.035439 -0.136999 -0.000000
v 0.088715 -0.435957 0.053276
v 0.088715 -0.435957 -0.053276
v -0.088715 -0.435957 -0.053276
v -0.035439 -0.136999 -0.000000
v -0.088715 -0.435957 0.053276
v -0.053276 -0.435957 -0.088715
v 0.053276 -0.435957 -0.088715
v 0.000000 -0.136999 -0.035439
v 0.000000 -0.136999 0.035439
v 0.053276 -0.435957 0.088715
v -0.053276 -0.435957 0.088715
v -0.190597 -0.975161 -0.190597
v 0.190598 -0.975161 -0.190597
v 0.190597 -0.975161 0.190598
v -0.190597 -0.975161 0.190597
v -0.290546 -1.075161 -0.290546
v 0.290546 -1.075161 -0.290546
v 0.290546 -1.075161 0.290546
v -0.290546 -1.075161 0.290546
v -0.290546 -1.151121 -0.290546
v 0.290546 -1.151121 -0.290546
v 0.290546 -1.151121 0.290546
v -0.290546 -1.151121 0.290546
v -0.166195 -1.151121 -0.166195
v 0.166195 -1.151121 -0.166195
v 0.166195 -1.151121 0.166195
v -0.166195 -1.151121 0.166195
v -0.091522 -0.839275 -0.091522
v 0.091522 -0.839275 -0.091522
v 0.091522 -0.839275 0.091522
v -0.091522 -0.839275 0.091522
vt 0.250000 0.490000
vt 0.250000 0.250000
vt 0.250000 0.250000
vt 0.250000 0.490000
vt 0.750000 0.010000
vt 0.990000 0.250000
vt 0.990000 0.250000
vt 0.750000 0.010000
vt 0.010000 0.250000
vt 0.010000 0.250000
vt 0.250000 0.250000
vt 0.750000 0.490000
vt 0.510000 0.250000
vt 0.510000 0.250000
vt 0.750000 0.490000
vt 0.750000 0.490000
vt 0.510000 0.250000
vt 0.250000 0.010000
vt 0.250000 0.250000
vt 0.250000 0.010000
vt 0.490000 0.250000
vt 0.250000 0.250000
vt 0.490000 0.250000
vt 0.250000 0.010000
vt 0.250000 0.010000
vt 0.250000 0.250000
vt 0.250000 0.490000
vt 0.250000 0.250000
vt 0.010000 0.250000
vt 0.250000 0.490000
vt 0.250000 0.250000
vt 0.010000 0.250000
vt 0.490000 0.250000
vt 0.750000 0.490000
vt 0.990000 0.250000
vt 0.250000 0.010000
vt 0.250000 0.250000
vt 0.750000 0.010000
vt 0.510000 0.250000
vt 0.490000 0.250000
vt 0.250000 0.490000
vt 0.490000 0.250000
vt 0.010000 0.250000
vt 0.510000 0.250000
vt 0.750000 0.490000
vt 0.750000 0.490000
vt 0.990000 0.250000
vt 0.750000 0.010000
vt 0.510000 0.250000
vt 0.990000 0.250000
vt 0.750000 0.010000
vt 0.750000 0.010000
vt 0.510000 0.250000
vt 0.750000 0.010000
vt 0.990000 0.250000
vt 0.750000 0.490000
vt 0.990000 0.250000
vt 0.990000 0.250000
vt 0.750000 0.490000
vt 0.510000 0.250000
vt 0.750000 0.490000
vt 0.510000 0.250000
vt 0.750000 0.010000
vt 0.750000 0.010000
vt 0.510000 0.250000
vt 0.750000 0.010000
vt 0.990000 0.250000
vt 0.750000 0.490000
vt 0.990000 0.250000
vn -0.5010 0.2376 -0.8322
vn 1.0000 0.0074 0.0000
vn -0.5010 0.2376 0.8322
vn -1.0000 0.0074 0.0000
vn -0.6883 -0.7255 0.0000
vn -0.8825 -0.0745 0.4644
vn 0.8322 0.2376 -0.5010
vn 0.8322 0.2376 0.5010
vn 0.8825 -0.0745 -0.4644
vn -0.8322 0.2376 0.5010
vn -0.8322 0.2376 -0.5010
vn -0.4644 -0.0745 -0.8825
vn 0.5010 0.2376 -0.8322
vn 0.0000 0.0074 -1.0000
vn 0.4644 -0.0745 -0.8825
vn 0.0000 0.0074 1.0000
vn 0.5010 0.2376 0.8322
vn 0.9845 0.1754 0.0000
vn -0.9845 0.1754 -0.0000
vn 0.0000 0.1754 -0.9845
vn -0.0000 0.1754 0.9845
vn 0.4644 -0.0745 0.8825
vn -0.6608 0.7506 -0.0000
vn 0.0000 0.7506 -0.6608
vn -0.0000 0.7506 0.6608
vn 0.6608 0.7506 0.0000
vn -0.4644 -0.0745 0.8825
vn -0.8825 -0.0745 -0.4644
vn 0.8825 -0.0745 0.4644
vn -0.0000 0.7069 0.7073
vn -0.0000 -0.7255 0.6883
vn 0.6883 -0.7255 -0.0000
vn 0.0000 -0.7255 -0.6883
vn 0.0000 0.0000 -1.0000
vn 0.0000 0.7069 -0.7073
vn -0.7073 0.7069 0.0000
vn 0.7073 0.7069 0.0000
vn 0.0000 -1.0000 -0.0000
vn -1.0000 0.0000 0.0000
vn 1.0000 0.0000 0.0000
vn -0.0000 0.0000 1.0000
vn 0.0000 -0.2329 -0.9725
vn -0.0000 -0.2329 0.9725
vn 0.9725 -0.2329 0.0000
vn -0.9725 -0.2329 -0.0000
usemtl None
s off
f 1/1/1 5/2/1 14/3/1 12/4/1
f 3/5/2 2/6/2 8/7/2 7/8/2
f 5/2/3 4/9/3 17/10/3 15/11/3
f 1/12/4 4/13/4 11/14/4 9/15/4
f 4/13/5 1/12/5 30/16/5 33/17/5
f 16/18/6 15/11/6 27/19/6 28/20/6
f 2/21/7 5/2/7 6/22/7 8/23/7
f 5/2/8 3/24/8 7/25/8 6/22/8
f 12/4/9 14/3/9 26/26/9 24/27/9
f 4/9/10 5/2/10 10/28/10 11/29/10
f 5/2/11 1/1/11 9/30/11 10/28/11
f 11/29/12 10/28/12 22/31/12 23/32/12
f 5/2/13 2/21/13 13/33/13 14/3/13
f 2/6/14 1/12/14 12/34/14 13/35/14
f 6/22/15 7/25/15 19/36/15 18/37/15
f 4/13/16 3/5/16 16/38/16 17/39/16
f 3/24/17 5/2/17 15/11/17 16/18/17
f 20/40/18 18/37/18 19/36/18
f 23/32/19 22/31/19 21/41/19
f 24/27/20 26/26/20 25/42/20
f 28/20/21 27/19/21 29/43/21
f 8/23/22 6/22/22 18/37/22 20/40/22
f 9/15/23 11/14/23 23/44/23 21/45/23
f 13/35/24 12/34/24 24/46/24 25/47/24
f 17/39/25 16/38/25 28/48/25 29/49/25
f 7/8/26 8/7/26 20/50/26 19/51/26
f 10/28/27 9/30/27 21/41/27 22/31/27
f 14/3/28 13/33/28 25/42/28 26/26/28
f 15/11/29 17/10/29 29/43/29 27/19/29
f 32/52/30 33/17/30 37/53/30 36/54/30
f 3/5/31 4/13/31 33/17/31 32/52/31
f 2/6/32 3/5/32 32/52/32 31/55/32
f 1/12/33 2/6/33 31/55/33 30/16/33
f 34/56/34 35/57/34 39/58/34 38/59/34
f 30/16/35 31/55/35 35/57/35 34/56/35
f 33/17/36 30/16/36 34/56/36 37/53/36
f 31/55/37 32/52/37 36/54/37 35/57/37
f 41/60/38 38/59/38 42/61/38 45/62/38
f 37/53/39 34/56/39 38/59/39 41/60/39
f 35/57/40 36/54/40 40/63/40 39/58/40
f 36/54/41 37/53/41 41/60/41 40/63/41
f 44/64/42 45/62/42 49/65/42 48/66/42
f 39/58/38 40/63/38 44/64/38 43/67/38
f 40/63/38 41/60/38 45/62/38 44/64/38
f 38/59/38 39/58/38 43/67/38 42/61/38
f 46/68/38 47/69/38 48/66/38 49/65/38
f 42/61/43 43/67/43 47/69/43 46/68/43
f 45/62/44 42/61/44 46/68/44 49/65/44
f 43/67/45 44/64/45 48/66/45 47/69/45
