# Blender v2.80 (sub 75) OBJ File: ''
# www.blender.org
mtllib pin.mtl
o Cylinder
v -0.000000 -1.584105 -0.113915
v 0.000000 2.316920 -1.131544
v 0.080550 -1.584105 -0.080550
v 0.800122 2.316920 -0.800122
v 0.113915 -1.584105 -0.000000
v 1.131544 2.316920 0.000000
v 0.080550 -1.584105 0.080550
v 0.800122 2.316920 0.800122
v -0.000000 -1.584105 0.113915
v -0.000000 2.316920 1.131544
v -0.080550 -1.584105 0.080550
v -0.800123 2.316920 0.800122
v -0.113915 -1.584105 -0.000000
v -1.131544 2.316920 -0.000000
v -0.080550 -1.584105 -0.080550
v -0.800123 2.316920 -0.800122
v 0.000000 -0.369237 -1.581323
v -0.000000 -0.040757 -0.296780
v 0.209855 -0.040757 -0.209855
v 1.118164 -0.369237 -1.118164
v 0.296780 -0.040757 0.000000
v 1.581323 -0.369237 0.000000
v 0.209855 -0.040757 0.209855
v 1.118164 -0.369237 1.118164
v -0.000000 -0.040757 0.296780
v -0.000000 -0.369237 1.581323
v -0.209855 -0.040757 0.209855
v -1.118165 -0.369237 1.118164
v -0.296780 -0.040757 -0.000000
v -1.581323 -0.369237 -0.000000
v -0.209855 -0.040757 -0.209855
v -1.118165 -0.369237 -1.118164
v 0.126359 -0.485906 -0.126359
v 0.178698 -0.485906 0.000000
v 0.126359 -0.485906 0.126359
v -0.000000 -0.485906 0.178698
v -0.126359 -0.485906 0.126359
v -0.178698 -0.485906 -0.000000
v -0.126359 -0.485906 -0.126359
v -0.000000 -0.485906 -0.178698
v -0.000000 -2.115707 -0.037780
v 0.026714 -2.115707 -0.026714
v 0.037780 -2.115707 -0.000000
v 0.026714 -2.115707 0.026714
v -0.000000 -2.115707 0.037780
v -0.026714 -2.115707 0.026714
v -0.037780 -2.115707 -0.000000
v -0.026714 -2.115707 -0.026714
v -0.000000 0.682508 -0.484463
v 0.342567 0.682508 -0.342567
v 0.484463 0.682508 0.000000
v 0.342567 0.682508 0.342567
v -0.000000 0.682508 0.484463
v -0.342567 0.682508 0.342567
v -0.484463 0.682508 -0.000000
v -0.342567 0.682508 -0.342567
v 0.032815 1.020402 -0.937640
v 0.695826 1.020402 -0.663011
v 0.970455 1.020402 0.000000
v 0.695826 1.020402 0.663011
v 0.032815 1.020402 0.937640
v -0.630197 1.020402 0.663011
v -0.904825 1.020402 -0.000000
v -0.630197 1.020402 -0.663011
v -0.000000 2.533498 -0.233488
v 0.165101 2.533498 -0.165101
v 0.233488 2.533498 0.000000
v 0.165101 2.533498 0.165101
v -0.000000 2.533498 0.233488
v -0.165101 2.533498 0.165101
v -0.233488 2.533498 -0.000000
v -0.165101 2.533498 -0.165101
v 0.000000 -0.173904 -1.543342
v 1.091308 -0.173904 -1.091308
v 1.543342 -0.173904 0.000000
v 1.091308 -0.173904 1.091308
v -0.000000 -0.173904 1.543342
v -1.091308 -0.173904 1.091308
v -1.543342 -0.173904 -0.000000
v -1.091308 -0.173904 -1.091308
vt 1.000000 0.967542
vt 1.000000 1.000000
vt 0.875000 1.000000
vt 0.875000 0.967542
vt 0.750000 1.000000
vt 0.750000 0.967542
vt 0.625000 1.000000
vt 0.625000 0.967542
vt 0.500000 1.000000
vt 0.500000 0.967542
vt 0.375000 1.000000
vt 0.375000 0.967542
vt 0.250000 1.000000
vt 0.250000 0.967542
vt 0.500000 1.000000
vt 0.375000 1.000000
vt 0.125000 1.000000
vt 0.125000 0.967542
vt 0.000000 1.000000
vt 0.000000 0.967542
vt 0.625000 0.500000
vt 0.500000 0.500000
vt 0.500000 0.500000
vt 0.625000 0.500000
vt 0.125000 0.628523
vt 0.125000 0.666667
vt 0.000000 0.666667
vt 0.000000 0.628523
vt 0.125000 0.737033
vt 0.125000 0.833333
vt 0.000000 0.833333
vt 0.000000 0.737033
vt 0.250000 0.628523
vt 0.250000 0.666667
vt 0.250000 0.737033
vt 0.250000 0.833333
vt 0.375000 0.628523
vt 0.375000 0.666667
vt 0.375000 0.737033
vt 0.375000 0.833333
vt 0.500000 0.628523
vt 0.500000 0.666667
vt 0.500000 0.737033
vt 0.500000 0.833333
vt 0.625000 0.628523
vt 0.625000 0.666667
vt 0.625000 0.737033
vt 0.625000 0.833333
vt 0.750000 0.628523
vt 0.750000 0.666667
vt 0.750000 0.737033
vt 0.750000 0.833333
vt 0.875000 0.628523
vt 0.875000 0.666667
vt 0.875000 0.737033
vt 0.875000 0.833333
vt 1.000000 0.628523
vt 1.000000 0.666667
vt 1.000000 0.737033
vt 1.000000 0.833333
vt 1.000000 0.500000
vt 0.875000 0.500000
vt 0.750000 0.500000
vt 0.375000 0.500000
vt 0.250000 0.500000
vt 0.125000 0.500000
vt 0.000000 0.500000
vt 0.750000 0.490000
vt 0.919706 0.419706
vt 0.990000 0.250000
vt 0.919706 0.080294
vt 0.750000 0.010000
vt 0.580294 0.080294
vt 0.510000 0.250000
vt 0.580294 0.419706
vt 0.125000 0.500000
vt 0.250000 0.500000
vt 0.750000 0.500000
vt 0.875000 0.500000
vt 0.375000 0.500000
vt 0.000000 0.500000
vt 1.000000 0.500000
vt 0.125000 0.949157
vt 0.000000 0.949157
vt 0.250000 0.949157
vt 0.375000 0.949157
vt 0.500000 0.949157
vt 0.625000 0.949157
vt 0.750000 0.949157
vt 0.875000 0.949157
vt 1.000000 0.949157
vt 0.419706 0.419706
vt 0.250000 0.490000
vt 0.080294 0.419706
vt 0.010000 0.250000
vt 0.080294 0.080294
vt 0.250000 0.010000
vt 0.419706 0.080294
vt 0.490000 0.250000
vt 0.125000 1.000000
vt 0.000000 1.000000
vt 1.000000 1.000000
vt 0.875000 1.000000
vt 0.750000 1.000000
vt 0.625000 1.000000
vt 0.250000 1.000000
vn 0.3796 -0.1274 -0.9163
vn 0.9179 -0.1140 -0.3802
vn 0.9179 -0.1140 0.3802
vn 0.3796 -0.1274 0.9163
vn -0.3786 -0.1463 0.9139
vn -0.9121 -0.1595 0.3778
vn -0.0967 0.9676 0.2333
vn -0.9121 -0.1595 -0.3778
vn -0.3786 -0.1463 -0.9139
vn 0.3794 -0.1312 0.9159
vn -0.0343 -0.9960 -0.0828
vn -0.0439 0.9934 -0.1061
vn -0.0828 -0.9960 -0.0343
vn -0.1061 0.9934 -0.0439
vn -0.0828 -0.9960 0.0343
vn -0.1061 0.9934 0.0439
vn -0.0343 -0.9960 0.0828
vn -0.0439 0.9934 0.1061
vn 0.0343 -0.9960 0.0828
vn 0.0439 0.9934 0.1061
vn 0.0828 -0.9960 0.0343
vn 0.1061 0.9934 0.0439
vn 0.0828 -0.9960 -0.0343
vn 0.1061 0.9934 -0.0439
vn 0.0343 -0.9960 -0.0828
vn 0.0439 0.9934 -0.1061
vn 0.3821 -0.0544 -0.9225
vn 0.9225 -0.0544 -0.3821
vn 0.9225 -0.0544 0.3821
vn 0.3821 -0.0544 0.9225
vn -0.3821 -0.0544 0.9225
vn -0.9225 -0.0544 0.3821
vn -0.9225 -0.0544 -0.3821
vn -0.3821 -0.0544 -0.9225
vn 0.0000 -1.0000 0.0000
vn -0.9159 -0.1312 -0.3794
vn 0.9159 -0.1312 -0.3794
vn -0.3794 -0.1312 0.9159
vn -0.3794 -0.1312 -0.9159
vn 0.3794 -0.1312 -0.9159
vn 0.9159 -0.1312 0.3794
vn -0.9159 -0.1312 0.3794
vn -0.3721 -0.2331 -0.8984
vn -0.8984 -0.2331 -0.3721
vn -0.8984 -0.2331 0.3721
vn -0.3721 -0.2331 0.8984
vn 0.3721 -0.2331 0.8984
vn 0.8984 -0.2331 0.3721
vn 0.8984 -0.2331 -0.3721
vn 0.3721 -0.2331 -0.8984
vn -0.2448 -0.7687 -0.5909
vn -0.6064 -0.7544 -0.2512
vn -0.6064 -0.7544 0.2512
vn -0.2448 -0.7687 0.5909
vn 0.2360 -0.7871 0.5698
vn 0.5555 -0.7990 0.2301
vn 0.5555 -0.7990 -0.2301
vn 0.2360 -0.7871 -0.5698
vn 0.0000 1.0000 0.0000
vn -0.0967 0.9676 -0.2333
vn 0.0967 0.9676 -0.2333
vn 0.2333 0.9676 0.0967
vn -0.2333 0.9676 0.0967
vn 0.0967 0.9676 0.2333
vn -0.2333 0.9676 -0.0967
vn 0.2333 0.9676 -0.0967
vn 0.3767 0.1768 -0.9093
vn 0.9093 0.1768 -0.3767
vn 0.9093 0.1768 0.3767
vn 0.3767 0.1768 0.9093
vn -0.3767 0.1768 0.9093
vn -0.9093 0.1768 0.3767
vn -0.9093 0.1768 -0.3767
vn -0.3767 0.1768 -0.9093
usemtl None
s off
f 57/1/1 2/2/1 4/3/1 58/4/1
f 58/4/2 4/3/2 6/5/2 59/6/2
f 59/6/3 6/5/3 8/7/3 60/8/3
f 60/8/4 8/7/4 10/9/4 61/10/4
f 61/10/5 10/9/5 12/11/5 62/12/5
f 62/12/6 12/11/6 14/13/6 63/14/6
f 12/11/7 10/9/7 69/15/7 70/16/7
f 63/14/8 14/13/8 16/17/8 64/18/8
f 64/18/9 16/17/9 2/19/9 57/20/9
f 7/21/10 9/22/10 45/23/10 44/24/10
f 39/25/11 32/26/11 17/27/11 40/28/11
f 80/29/12 31/30/12 18/31/12 73/32/12
f 38/33/13 30/34/13 32/26/13 39/25/13
f 79/35/14 29/36/14 31/30/14 80/29/14
f 37/37/15 28/38/15 30/34/15 38/33/15
f 78/39/16 27/40/16 29/36/16 79/35/16
f 36/41/17 26/42/17 28/38/17 37/37/17
f 77/43/18 25/44/18 27/40/18 78/39/18
f 35/45/19 24/46/19 26/42/19 36/41/19
f 76/47/20 23/48/20 25/44/20 77/43/20
f 34/49/21 22/50/21 24/46/21 35/45/21
f 75/51/22 21/52/22 23/48/22 76/47/22
f 33/53/23 20/54/23 22/50/23 34/49/23
f 74/55/24 19/56/24 21/52/24 75/51/24
f 40/57/25 17/58/25 20/54/25 33/53/25
f 73/59/26 18/60/26 19/56/26 74/55/26
f 1/61/27 40/57/27 33/53/27 3/62/27
f 3/62/28 33/53/28 34/49/28 5/63/28
f 5/63/29 34/49/29 35/45/29 7/21/29
f 7/21/30 35/45/30 36/41/30 9/22/30
f 9/22/31 36/41/31 37/37/31 11/64/31
f 11/64/32 37/37/32 38/33/32 13/65/32
f 13/65/33 38/33/33 39/25/33 15/66/33
f 15/66/34 39/25/34 40/28/34 1/67/34
f 41/68/35 42/69/35 43/70/35 44/71/35 45/72/35 46/73/35 47/74/35 48/75/35
f 13/65/36 15/66/36 48/76/36 47/77/36
f 3/62/37 5/63/37 43/78/37 42/79/37
f 9/22/38 11/64/38 46/80/38 45/23/38
f 15/66/39 1/67/39 41/81/39 48/76/39
f 1/61/40 3/62/40 42/79/40 41/82/40
f 5/63/41 7/21/41 44/24/41 43/78/41
f 11/64/42 13/65/42 47/77/42 46/80/42
f 31/30/43 56/83/43 49/84/43 18/31/43
f 29/36/44 55/85/44 56/83/44 31/30/44
f 27/40/45 54/86/45 55/85/45 29/36/45
f 25/44/46 53/87/46 54/86/46 27/40/46
f 23/48/47 52/88/47 53/87/47 25/44/47
f 21/52/48 51/89/48 52/88/48 23/48/48
f 19/56/49 50/90/49 51/89/49 21/52/49
f 18/60/50 49/91/50 50/90/50 19/56/50
f 56/83/51 64/18/51 57/20/51 49/84/51
f 55/85/52 63/14/52 64/18/52 56/83/52
f 54/86/53 62/12/53 63/14/53 55/85/53
f 53/87/54 61/10/54 62/12/54 54/86/54
f 52/88/55 60/8/55 61/10/55 53/87/55
f 51/89/56 59/6/56 60/8/56 52/88/56
f 50/90/57 58/4/57 59/6/57 51/89/57
f 49/91/58 57/1/58 58/4/58 50/90/58
f 66/92/59 65/93/59 72/94/59 71/95/59 70/96/59 69/97/59 68/98/59 67/99/59
f 2/19/60 16/17/60 72/100/60 65/101/60
f 4/3/61 2/2/61 65/102/61 66/103/61
f 8/7/62 6/5/62 67/104/62 68/105/62
f 14/13/63 12/11/63 70/16/63 71/106/63
f 10/9/64 8/7/64 68/105/64 69/15/64
f 16/17/65 14/13/65 71/106/65 72/100/65
f 6/5/66 4/3/66 66/103/66 67/104/66
f 17/58/67 73/59/67 74/55/67 20/54/67
f 20/54/68 74/55/68 75/51/68 22/50/68
f 22/50/69 75/51/69 76/47/69 24/46/69
f 24/46/70 76/47/70 77/43/70 26/42/70
f 26/42/71 77/43/71 78/39/71 28/38/71
f 28/38/72 78/39/72 79/35/72 30/34/72
f 30/34/73 79/35/73 80/29/73 32/26/73
f 32/26/74 80/29/74 73/32/74 17/27/74
