# Blender v2.80 (sub 75) OBJ File: 'pitto.blend'
# www.blender.org
mtllib pitto handle.mtl
o Cube_Cube.001
v -1.500000 -2.300000 0.600000
v -0.400000 2.000000 0.600000
v -1.500000 -2.300000 -0.600000
v -0.400000 2.000000 -0.600000
v 0.500000 -2.300000 0.600000
v 1.100000 2.000000 0.600000
v 0.500000 -2.300000 -0.600000
v 1.100000 2.000000 -0.600000
v -1.500000 -2.300000 0.000000
v -1.000000 0.000000 0.600000
v -0.400000 2.000000 0.000000
v -1.000000 0.000000 -0.600000
v -0.500000 -2.300000 -0.600000
v 0.600000 2.000000 -0.600000
v 0.500000 0.000000 -0.600000
v 0.500000 -2.300000 0.000000
v 1.100000 2.000000 0.000000
v 0.500000 0.000000 0.600000
v -0.500000 -2.300000 0.600000
v 0.600000 2.000000 0.600000
v -0.400000 2.133845 0.600000
v 0.500000 0.000000 0.000000
v -1.000000 0.000000 0.000000
v -1.500000 -2.800000 0.600000
v -1.500000 -2.800000 -0.600000
v 0.500000 -2.800000 0.600000
v 0.500000 -2.800000 -0.600000
v -1.500000 -2.800000 0.000000
v -0.500000 -2.800000 -0.600000
v 0.500000 -2.800000 0.000000
v -0.500000 -2.800000 0.600000
v -0.400000 2.133845 -0.600000
v 1.100000 2.133845 0.600000
v 1.100000 2.133845 -0.600000
v -0.400000 2.333845 0.000000
v 0.600000 2.133845 -0.600000
v 1.100000 2.333845 0.000000
v 0.600000 2.133845 0.600000
v 0.600000 2.333845 0.000000
v -1.246032 -2.300000 -0.600000
v -0.146032 1.800000 0.600000
v -0.146032 1.800000 -0.600000
v -1.246032 -2.300000 0.600000
v -0.746032 0.000000 0.600000
v -0.746032 0.000000 -0.600000
v -1.246032 -2.800000 -0.600000
v -1.246032 -2.800000 0.600000
v -0.146032 2.133845 0.600000
v -0.146032 2.133845 -0.600000
v -0.146032 2.333845 0.000000
v 0.853968 2.000000 -0.600000
v 0.253968 -2.100000 0.600000
v 0.253968 -2.100000 -0.600000
v 0.853968 2.000000 0.600000
v 0.253968 0.000000 0.600000
v 0.253968 0.000000 -0.600000
v 0.253968 -2.800000 0.600000
v 0.253968 -2.800000 -0.600000
v 0.853968 2.133845 -0.600000
v 0.853968 2.133845 0.600000
v 0.853968 2.333845 0.000000
v -0.500000 -2.300000 -0.800000
v 0.600000 2.000000 -0.800000
v -0.500000 -2.300000 0.800000
v 0.600000 2.000000 0.800000
v 0.000000 0.000000 0.800000
v 0.000000 0.000000 -0.800000
v -1.246032 -2.300000 -0.800000
v -0.146032 1.800000 0.800000
v -0.146032 1.800000 -0.800000
v -1.246032 -2.300000 0.800000
v -0.746032 0.000000 0.800000
v -0.746032 0.000000 -0.800000
v 0.853968 2.000000 -0.800000
v 0.253968 -2.100000 0.800000
v 0.253968 -2.100000 -0.800000
v 0.853968 2.000000 0.800000
v 0.253968 0.000000 0.800000
v 0.253968 0.000000 -0.800000
v -1.482204 -3.812035 0.600000
v -1.482204 -3.812035 -0.600000
v 0.482261 -4.187370 0.600000
v 0.482261 -4.187370 -0.600000
v -1.482204 -3.812035 0.000000
v -0.499972 -3.999702 -0.600000
v 0.482261 -4.187370 -0.000000
v -0.499972 -3.999702 0.600000
v -0.499972 -3.999702 0.000000
v -1.232749 -3.859696 -0.600000
v -1.232749 -3.859696 0.600000
v -1.232749 -3.859696 0.000000
v 0.240600 -4.141198 0.600000
v 0.240600 -4.141198 -0.600000
v 0.240600 -4.141198 -0.000000
v -0.400000 2.000000 -0.300000
v 0.500000 -2.300000 -0.300000
v -1.500000 -2.300000 -0.300000
v 1.100000 2.000000 -0.300000
v 0.500000 0.000000 -0.300000
v -1.000000 0.000000 -0.300000
v 0.500000 -2.800000 -0.300000
v -1.500000 -2.800000 -0.300000
v -0.400000 2.233845 -0.300000
v 1.100000 2.233845 -0.300000
v 0.600000 2.233845 -0.300000
v -0.146032 2.233845 -0.300000
v 0.853968 2.233845 -0.300000
v 0.482261 -4.187370 -0.300000
v -1.482204 -3.812035 -0.300000
v -0.499972 -3.999702 -0.300000
v -1.232749 -3.859696 -0.300000
v 0.240600 -4.141198 -0.300000
v -1.500000 -2.300000 0.300000
v 1.100000 2.000000 0.300000
v -0.400000 2.000000 0.300000
v 0.500000 -2.300000 0.300000
v 0.500000 0.000000 0.300000
v -1.000000 0.000000 0.300000
v -1.500000 -2.800000 0.300000
v 0.500000 -2.800000 0.300000
v 1.100000 2.233845 0.300000
v -0.400000 2.233845 0.300000
v 0.600000 2.233845 0.300000
v -0.146032 2.233845 0.300000
v 0.853968 2.233845 0.300000
v -1.482204 -3.812035 0.300000
v 0.482261 -4.187370 0.300000
v -0.499972 -3.999702 0.300000
v -1.232749 -3.859696 0.300000
v 0.240600 -4.141198 0.300000
v 0.486252 -3.875255 -0.000000
v 0.486252 -3.875255 -0.600000
v -0.499978 -3.729807 -0.600000
v 0.243608 -3.839470 -0.600000
v -1.235737 -3.621298 0.600000
v -1.486208 -3.584358 0.600000
v -1.486208 -3.584358 -0.600000
v -1.235737 -3.621298 -0.600000
v 0.243608 -3.839470 0.600000
v -0.499978 -3.729807 0.600000
v 0.486252 -3.875255 0.600000
v -1.486208 -3.584358 0.000000
v -1.486208 -3.584358 -0.300000
v 0.486252 -3.875255 -0.300000
v -1.486208 -3.584358 0.300000
v 0.486252 -3.875255 0.300000
v 0.599992 -2.801279 0.000000
v 0.599992 -2.801279 -0.300000
v 0.599992 -2.801279 0.300000
v 0.558402 -3.873738 -0.000000
v 0.558402 -3.873738 -0.300000
v 0.558402 -3.873738 0.300000
v -0.499985 -3.452211 -0.600000
v -1.238810 -3.376097 0.600000
v -1.490326 -3.350186 -0.600000
v 0.246701 -3.529134 0.600000
v 0.490356 -3.554235 -0.600000
v 0.246701 -3.529134 -0.600000
v -1.490326 -3.350186 0.600000
v -1.238810 -3.376097 -0.600000
v -0.499985 -3.452211 0.600000
v 0.490356 -3.554235 0.600000
v -1.490326 -3.350186 0.000000
v -1.490326 -3.350186 -0.300000
v 0.490356 -3.554235 -0.300000
v -1.490326 -3.350186 0.300000
v 0.490356 -3.554235 0.300000
v 0.618189 -3.558308 -0.000000
v 0.618189 -3.558308 -0.300000
v 0.618189 -3.558308 0.300000
v 0.880783 -3.932398 -0.000000
v 0.880783 -3.932398 -0.300000
v 0.880783 -3.932398 0.300000
v 0.885312 -3.611384 -0.000000
v 0.885312 -3.611384 -0.300000
v 0.885312 -3.611384 0.300000
v 1.401820 -3.904669 -0.000000
v 1.401820 -3.904669 -0.300000
v 1.401820 -3.904669 0.300000
v 1.221404 -3.639112 -0.000000
v 1.221404 -3.639112 -0.300000
v 1.221404 -3.639112 0.300000
v 6.779632 0.231380 -0.000000
v 6.779632 0.231380 -0.300000
v 6.779632 0.231380 0.300000
v 6.599216 0.496937 -0.000000
v 6.599216 0.496937 -0.300000
v 6.599216 0.496937 0.300000
v 7.149931 0.561894 -0.000000
v 7.149931 0.561894 -0.300000
v 7.149931 0.561894 0.300000
v 6.828917 0.566423 -0.000000
v 6.828917 0.566423 -0.300000
v 6.828917 0.566423 0.300000
v 7.149931 0.961894 -0.000000
v 7.149931 0.961894 -0.300000
v 7.149931 0.961894 0.300000
v 6.828917 0.966423 -0.000000
v 6.828917 0.966423 -0.300000
v 6.828917 0.966423 0.300000
vt 0.500000 0.187500
vt 0.625000 0.187500
vt 0.625000 0.250000
vt 0.500000 0.250000
vt 0.500000 0.469246
vt 0.625000 0.469246
vt 0.625000 0.500000
vt 0.500000 0.500000
vt 0.500000 0.687500
vt 0.625000 0.687500
vt 0.625000 0.750000
vt 0.500000 0.750000
vt 0.500000 0.968254
vt 0.625000 0.968254
vt 0.625000 1.000000
vt 0.500000 1.000000
vt 0.375000 0.469246
vt 0.375000 0.500000
vt 0.375000 0.500000
vt 0.375000 0.469246
vt 0.625000 0.375000
vt 0.625000 0.375000
vt 0.625000 0.469246
vt 0.625000 0.562500
vt 0.625000 0.500000
vt 0.625000 0.562500
vt 0.625000 0.875000
vt 0.625000 0.875000
vt 0.625000 0.968254
vt 0.625000 0.125000
vt 0.625000 0.125000
vt 0.625000 0.187500
vt 0.375000 0.562500
vt 0.375000 0.625000
vt 0.375000 0.625000
vt 0.375000 0.562500
vt 0.375000 0.062500
vt 0.375000 0.125000
vt 0.375000 0.125000
vt 0.375000 0.062500
vt 0.375000 0.968254
vt 0.375000 1.000000
vt 0.375000 1.000000
vt 0.375000 0.968254
vt 0.375000 0.375000
vt 0.375000 0.375000
vt 0.375000 0.469246
vt 0.500000 0.469246
vt 0.625000 0.469246
vt 0.375000 0.687500
vt 0.375000 0.750000
vt 0.500000 0.562500
vt 0.500000 0.625000
vt 0.625000 0.625000
vt 0.625000 0.780754
vt 0.625000 0.875000
vt 0.625000 0.780754
vt 0.625000 0.375000
vt 0.375000 0.187500
vt 0.375000 0.250000
vt 0.500000 0.062500
vt 0.500000 0.125000
vt 0.625000 0.062500
vt 0.375000 0.750000
vt 0.375000 0.780754
vt 0.375000 0.780754
vt 0.375000 0.750000
vt 0.375000 0.687500
vt 0.375000 0.687500
vt 0.375000 0.562500
vt 0.375000 0.625000
vt 0.375000 0.625000
vt 0.375000 0.562500
vt 0.375000 0.469246
vt 0.375000 0.500000
vt 0.375000 0.500000
vt 0.375000 0.469246
vt 0.375000 0.250000
vt 0.375000 0.187500
vt 0.375000 0.780754
vt 0.375000 0.875000
vt 0.375000 0.875000
vt 0.375000 0.780754
vt 0.375000 0.750000
vt 0.375000 0.687500
vt 0.375000 0.281746
vt 0.375000 0.375000
vt 0.375000 0.281746
vt 0.843254 0.687500
vt 0.875000 0.687500
vt 0.875000 0.750000
vt 0.843254 0.750000
vt 0.655754 0.687500
vt 0.750000 0.687500
vt 0.750000 0.750000
vt 0.655754 0.750000
vt 0.655754 0.562500
vt 0.750000 0.562500
vt 0.750000 0.625000
vt 0.655754 0.625000
vt 0.843254 0.562500
vt 0.875000 0.562500
vt 0.875000 0.625000
vt 0.843254 0.625000
vt 0.625000 0.000000
vt 0.625000 0.000000
vt 0.625000 0.062500
vt 0.625000 0.750000
vt 0.625000 0.780754
vt 0.625000 0.625000
vt 0.625000 0.687500
vt 0.625000 0.281746
vt 0.625000 0.250000
vt 0.625000 0.281746
vt 0.375000 0.375000
vt 0.375000 0.375000
vt 0.375000 0.968254
vt 0.375000 1.000000
vt 0.375000 1.000000
vt 0.375000 0.968254
vt 0.500000 0.281746
vt 0.375000 0.875000
vt 0.375000 0.968254
vt 0.625000 1.000000
vt 0.625000 0.968254
vt 0.375000 0.250000
vt 0.375000 0.281746
vt 0.375000 0.281746
vt 0.375000 0.250000
vt 0.375000 0.875000
vt 0.375000 0.875000
vt 0.500000 0.968254
vt 0.500000 0.780754
vt 0.375000 0.281746
vt 0.375000 0.780754
vt 0.500000 0.780754
vt 0.500000 0.875000
vt 0.500000 0.281746
vt 0.500000 0.375000
vt 0.625000 0.281746
vt 0.344246 0.687500
vt 0.344246 0.750000
vt 0.156746 0.687500
vt 0.250000 0.687500
vt 0.250000 0.750000
vt 0.156746 0.750000
vt 0.156746 0.562500
vt 0.250000 0.562500
vt 0.250000 0.625000
vt 0.156746 0.625000
vt 0.344246 0.562500
vt 0.344246 0.625000
vt 0.125000 0.562500
vt 0.125000 0.625000
vt 0.125000 0.687500
vt 0.125000 0.750000
vt 0.375000 0.062500
vt 0.375000 0.125000
vt 0.375000 0.125000
vt 0.375000 0.062500
vt 0.375000 0.187500
vt 0.375000 0.187500
vt 0.250000 0.500000
vt 0.344246 0.500000
vt 0.125000 0.500000
vt 0.156746 0.500000
vt 0.655754 0.500000
vt 0.750000 0.500000
vt 0.843254 0.500000
vt 0.875000 0.500000
vt 0.375000 0.000000
vt 0.375000 0.000000
vt 0.500000 0.000000
vt 0.375000 0.000000
vt 0.375000 0.000000
vt 0.375000 0.562500
vt 0.375000 0.562500
vt 0.375000 0.562500
vt 0.375000 0.000000
vt 0.375000 0.062500
vt 0.375000 0.500000
vt 0.375000 0.125000
vt 0.375000 0.187500
vt 0.375000 0.281746
vt 0.375000 0.375000
vt 0.375000 0.250000
vt 0.375000 0.875000
vt 0.375000 0.968254
vt 0.375000 0.780754
vt 0.375000 1.000000
vt 0.375000 0.469246
vt 0.375000 0.687500
vt 0.375000 0.687500
vt 0.375000 0.687500
vt 0.375000 0.750000
vt 0.375000 0.562500
vt 0.375000 0.562500
vt 0.375000 0.562500
vt 0.375000 0.625000
vt 0.375000 0.625000
vt 0.375000 0.687500
vt 0.375000 0.625000
vt 0.375000 0.687500
vt 0.375000 0.625000
vt 0.375000 0.625000
vt 0.375000 0.687500
vt 0.375000 0.687500
vt 0.375000 0.625000
vt 0.375000 0.562500
vt 0.375000 0.625000
vt 0.375000 0.687500
vt 0.375000 0.562500
vt 0.375000 0.687500
vt 0.375000 0.625000
vt 0.375000 0.562500
vt 0.375000 0.625000
vt 0.375000 0.687500
vt 0.375000 0.562500
vt 0.375000 0.625000
vt 0.375000 0.562500
vt 0.375000 0.625000
vt 0.375000 0.687500
vt 0.375000 0.562500
vt 0.375000 0.687500
vt 0.375000 0.687500
vt 0.375000 0.625000
vt 0.375000 0.562500
vt 0.375000 0.625000
vt 0.375000 0.687500
vt 0.375000 0.562500
vn -0.9578 0.2873 0.0000
vn 0.0000 0.0000 -1.0000
vn 0.9578 -0.2873 0.0000
vn 0.0000 0.0000 1.0000
vn 1.0000 0.0000 0.0000
vn -1.0000 0.0000 0.0000
vn 0.2564 -0.9666 0.0000
vn 0.0000 1.0000 0.0000
vn -0.9772 0.2124 0.0000
vn 0.9999 -0.0128 0.0000
vn 0.0000 0.9487 0.3162
vn 0.0000 0.9487 -0.3162
vn 0.0000 -1.0000 0.0000
vn -0.2589 0.9659 0.0000
vn -0.9487 0.3162 0.0000
vn -0.1877 -0.9822 0.0000
vn -0.9998 -0.0176 0.0000
vn -0.1790 -0.9838 0.0000
vn 0.0128 0.9999 0.0000
vn 0.0210 -0.9998 0.0000
vn 0.9997 0.0240 0.0000
vn 0.1949 0.9808 0.0000
vn 0.0822 0.9966 0.0000
vn 0.0531 -0.9986 0.0000
vn -0.6096 0.7927 0.0000
vn 0.6096 -0.7927 0.0000
vn -0.2895 0.9572 0.0000
vn 0.6659 -0.7460 0.0000
usemtl None
s off
f 100/1/1 95/2/1 4/3/1 12/4/1
f 56/5/2 51/6/2 8/7/2 15/8/2
f 117/9/3 114/10/3 6/11/3 18/12/3
f 44/13/4 41/14/4 2/15/4 10/16/4
f 53/17/2 7/18/2 27/19/2 58/20/2
f 51/6/2 14/21/2 36/22/2 59/23/2
f 98/24/5 8/7/5 34/25/5 104/26/5
f 41/14/4 20/27/4 38/28/4 48/29/4
f 95/2/6 11/30/6 35/31/6 103/32/6
f 96/33/5 16/34/5 30/35/5 101/36/5
f 113/37/6 9/38/6 28/39/6 119/40/6
f 43/41/4 1/42/4 24/43/4 47/44/4
f 43/41/4 44/13/4 10/16/4 1/42/4
f 53/17/7 13/45/7 62/46/7 76/47/7
f 51/6/3 56/5/3 79/48/3 74/49/3
f 116/50/5 117/9/5 18/12/5 5/51/5
f 96/33/5 99/52/5 22/53/5 16/34/5
f 99/52/3 98/24/3 17/54/3 22/53/3
f 53/17/2 56/5/2 15/8/2 7/18/2
f 54/55/8 20/27/8 65/56/8 77/57/8
f 14/21/8 51/6/8 74/49/8 63/58/8
f 97/59/9 100/1/9 12/4/9 3/60/9
f 113/37/9 118/61/9 23/62/9 9/38/9
f 118/61/1 115/63/1 11/30/1 23/62/1
f 141/64/4 139/65/4 92/66/4 82/67/4
f 146/68/10 141/64/10 82/67/10 127/69/10
f 144/70/10 131/71/10 86/72/10 108/73/10
f 134/74/2 132/75/2 83/76/2 93/77/2
f 97/59/6 3/60/6 25/78/6 102/79/6
f 52/80/4 19/81/4 31/82/4 57/83/4
f 116/50/5 5/51/5 26/84/5 120/85/5
f 40/86/2 13/45/2 29/87/2 46/88/2
f 124/89/11 122/90/11 21/91/11 48/92/11
f 125/93/11 123/94/11 38/95/11 60/96/11
f 107/97/12 105/98/12 39/99/12 61/100/12
f 106/101/12 103/102/12 35/103/12 50/104/12
f 115/63/6 2/105/6 21/106/6 122/107/6
f 54/55/4 6/11/4 33/108/4 60/109/4
f 114/10/5 17/54/5 37/110/5 121/111/5
f 42/112/2 4/3/2 32/113/2 49/114/2
f 14/21/2 42/112/2 49/114/2 36/22/2
f 105/98/12 106/101/12 50/104/12 39/99/12
f 123/94/11 124/89/11 48/92/11 38/95/11
f 3/60/2 40/86/2 46/88/2 25/78/2
f 133/115/2 134/74/2 93/77/2 85/116/2
f 135/117/4 136/118/4 80/119/4 90/120/4
f 12/4/2 4/3/2 42/112/2 45/121/2
f 3/60/2 12/4/2 45/121/2 40/86/2
f 43/41/13 19/81/13 64/122/13 71/123/13
f 19/81/4 43/41/4 47/44/4 31/82/4
f 2/15/4 41/14/4 48/29/4 21/124/4
f 20/27/14 41/14/14 69/125/14 65/56/14
f 20/27/4 54/55/4 60/109/4 38/28/4
f 104/26/12 107/97/12 61/100/12 37/110/12
f 121/111/11 125/93/11 60/96/11 33/108/11
f 5/51/4 52/80/4 57/83/4 26/84/4
f 137/126/2 138/127/2 89/128/2 81/129/2
f 139/65/4 140/130/4 87/131/4 92/66/4
f 41/14/15 44/13/15 72/132/15 69/125/15
f 18/12/4 6/11/4 54/55/4 55/133/4
f 5/51/4 18/12/4 55/133/4 52/80/4
f 8/7/2 51/6/2 59/23/2 34/25/2
f 13/45/2 53/17/2 58/20/2 29/87/2
f 13/45/13 40/86/13 68/134/13 62/46/13
f 75/135/4 78/136/4 66/137/4 64/122/4
f 78/136/4 77/57/4 65/56/4 66/137/4
f 68/134/2 73/138/2 67/139/2 62/46/2
f 73/138/2 70/140/2 63/58/2 67/139/2
f 64/122/4 66/137/4 72/132/4 71/123/4
f 66/137/4 65/56/4 69/125/4 72/132/4
f 62/46/2 67/139/2 79/48/2 76/47/2
f 67/139/2 63/58/2 74/49/2 79/48/2
f 19/81/7 52/80/7 75/135/7 64/122/7
f 45/121/15 42/112/15 70/140/15 73/138/15
f 42/112/14 14/21/14 63/58/14 70/140/14
f 40/86/9 45/121/9 73/138/9 68/134/9
f 56/5/5 53/17/5 76/47/5 79/48/5
f 44/13/9 43/41/9 71/123/9 72/132/9
f 55/133/3 54/55/3 77/57/3 78/136/3
f 52/80/5 55/133/5 78/136/5 75/135/5
f 130/141/16 127/69/16 82/67/16 92/142/16
f 129/143/16 128/144/16 87/145/16 90/146/16
f 111/147/16 110/148/16 88/149/16 91/150/16
f 112/151/16 108/73/16 86/72/16 94/152/16
f 109/153/16 111/147/16 91/150/16 84/154/16
f 126/155/16 129/143/16 90/146/16 80/156/16
f 110/148/16 112/151/16 94/152/16 88/149/16
f 128/144/16 130/141/16 92/142/16 87/145/16
f 145/157/17 142/158/17 84/159/17 126/160/17
f 140/130/4 135/117/4 90/120/4 87/131/4
f 143/161/17 137/126/17 81/129/17 109/162/17
f 138/127/2 133/115/2 85/116/2 89/128/2
f 142/158/17 143/161/17 109/162/17 84/159/17
f 85/163/16 93/164/16 112/151/16 110/148/16
f 81/165/16 89/166/16 111/147/16 109/153/16
f 93/164/16 83/76/16 108/73/16 112/151/16
f 89/166/16 85/163/16 110/148/16 111/147/16
f 34/25/12 59/167/12 107/97/12 104/26/12
f 36/168/12 49/169/12 106/101/12 105/98/12
f 49/169/12 32/170/12 103/102/12 106/101/12
f 59/167/12 36/168/12 105/98/12 107/97/12
f 9/38/6 97/59/6 102/79/6 28/39/6
f 132/75/10 144/70/10 108/73/10 83/76/10
f 9/38/9 23/62/9 100/1/9 97/59/9
f 15/8/3 8/7/3 98/24/3 99/52/3
f 7/18/5 15/8/5 99/52/5 96/33/5
f 7/18/5 96/33/5 101/36/5 27/19/5
f 4/3/6 95/2/6 103/32/6 32/113/6
f 17/54/5 98/24/5 104/26/5 37/110/5
f 23/62/1 11/30/1 95/2/1 100/1/1
f 136/171/17 145/157/17 126/160/17 80/172/17
f 88/149/16 94/152/16 130/141/16 128/144/16
f 84/154/16 91/150/16 129/143/16 126/155/16
f 91/150/16 88/149/16 128/144/16 129/143/16
f 94/152/16 86/72/16 127/69/16 130/141/16
f 37/110/11 61/100/11 125/93/11 121/111/11
f 39/99/11 50/104/11 124/89/11 123/94/11
f 6/11/5 114/10/5 121/111/5 33/108/5
f 11/30/6 115/63/6 122/107/6 35/31/6
f 61/100/11 39/99/11 123/94/11 125/93/11
f 50/104/11 35/103/11 122/90/11 124/89/11
f 16/34/5 116/50/5 120/85/5 30/35/5
f 131/71/10 146/68/10 127/69/10 86/72/10
f 10/173/1 2/105/1 115/63/1 118/61/1
f 1/174/9 10/173/9 118/61/9 113/37/9
f 16/34/5 22/53/5 117/9/5 116/50/5
f 1/174/6 113/37/6 119/40/6 24/175/6
f 22/53/3 17/54/3 114/10/3 117/9/3
f 165/176/2 101/36/2 148/177/2 169/178/2
f 159/179/17 166/180/17 145/157/17 136/171/17
f 157/181/10 165/176/10 144/70/10 132/75/10
f 163/182/17 164/183/17 143/161/17 142/158/17
f 160/184/2 153/185/2 133/115/2 138/127/2
f 164/183/17 155/186/17 137/126/17 143/161/17
f 161/187/4 154/188/4 135/117/4 140/130/4
f 166/180/17 163/182/17 142/158/17 145/157/17
f 156/189/4 161/187/4 140/130/4 139/65/4
f 155/186/2 160/184/2 138/127/2 137/126/2
f 154/188/4 159/190/4 136/118/4 135/117/4
f 153/185/2 158/191/2 134/74/2 133/115/2
f 158/191/2 157/181/2 132/75/2 134/74/2
f 167/192/4 146/68/4 152/193/4 170/194/4
f 167/192/10 162/195/10 141/64/10 146/68/10
f 162/195/4 156/189/4 139/65/4 141/64/4
f 151/196/2 169/178/2 175/197/2 172/198/2
f 152/193/18 150/199/18 171/200/18 173/201/18
f 101/36/19 30/35/19 147/202/19 148/177/19
f 131/71/20 144/70/20 151/196/20 150/199/20
f 30/35/19 120/85/19 149/203/19 147/202/19
f 146/68/20 131/71/20 150/199/20 152/193/20
f 148/177/21 147/202/21 168/204/21 169/178/21
f 147/202/21 149/203/21 170/194/21 168/204/21
f 26/84/4 57/83/4 156/189/4 162/195/4
f 120/85/10 26/84/10 162/195/10 167/192/10
f 120/85/4 167/192/4 170/194/4 149/203/4
f 58/20/2 27/19/2 157/181/2 158/191/2
f 29/87/2 58/20/2 158/191/2 153/185/2
f 47/44/4 24/43/4 159/190/4 154/188/4
f 25/78/2 46/88/2 160/184/2 155/186/2
f 57/83/4 31/82/4 161/187/4 156/189/4
f 119/40/17 28/39/17 163/182/17 166/180/17
f 31/82/4 47/44/4 154/188/4 161/187/4
f 102/79/17 25/78/17 155/186/17 164/183/17
f 46/88/2 29/87/2 153/185/2 160/184/2
f 28/39/17 102/79/17 164/183/17 163/182/17
f 27/19/10 101/36/10 165/176/10 157/181/10
f 24/175/17 119/40/17 166/180/17 159/179/17
f 144/70/2 165/176/2 169/178/2 151/196/2
f 169/178/22 168/204/22 174/205/22 175/197/22
f 150/199/18 151/196/18 172/198/18 171/200/18
f 170/194/4 152/193/4 173/201/4 176/206/4
f 168/204/22 170/194/22 176/206/22 174/205/22
f 174/205/23 176/206/23 182/207/23 180/208/23
f 171/200/24 172/198/24 178/209/24 177/210/24
f 176/206/4 173/201/4 179/211/4 182/207/4
f 175/197/23 174/205/23 180/208/23 181/212/23
f 173/201/24 171/200/24 177/210/24 179/211/24
f 172/198/2 175/197/2 181/212/2 178/209/2
f 180/208/25 182/207/25 188/213/25 186/214/25
f 177/210/26 178/209/26 184/215/26 183/216/26
f 182/207/4 179/211/4 185/217/4 188/213/4
f 181/212/25 180/208/25 186/214/25 187/218/25
f 179/211/26 177/210/26 183/216/26 185/217/26
f 178/209/2 181/212/2 187/218/2 184/215/2
f 187/218/27 186/214/27 192/219/27 193/220/27
f 185/217/28 183/216/28 189/221/28 191/222/28
f 184/215/2 187/218/2 193/220/2 190/223/2
f 186/214/27 188/213/27 194/224/27 192/219/27
f 183/216/28 184/215/28 190/223/28 189/221/28
f 188/213/4 185/217/4 191/222/4 194/224/4
f 192/219/6 194/224/6 200/225/6 198/226/6
f 189/221/5 190/223/5 196/227/5 195/228/5
f 194/224/4 191/222/4 197/229/4 200/225/4
f 193/220/6 192/219/6 198/226/6 199/230/6
f 191/222/5 189/221/5 195/228/5 197/229/5
f 190/223/2 193/220/2 199/230/2 196/227/2
