# Blender v2.81 (sub 16) OBJ File: ''
# www.blender.org
mtllib Rocket_Body.mtl
o Cylinder
v -0.000000 -0.118490 -0.559245
v -0.000000 3.118490 -0.441084
v 0.395446 -0.118490 -0.395446
v 0.311894 3.118490 -0.311894
v 0.559245 -0.118490 0.000000
v 0.441084 3.118490 0.000000
v 0.395446 -0.118490 0.395446
v 0.311894 3.118490 0.311894
v -0.000000 -0.118490 0.559245
v -0.000000 3.118490 0.441084
v -0.395446 -0.118490 0.395446
v -0.311894 3.118490 0.311894
v -0.559245 -0.118490 -0.000000
v -0.441084 3.118490 -0.000000
v -0.395446 -0.118490 -0.395446
v -0.311894 3.118490 -0.311894
v -0.000000 0.570667 -0.644000
v -0.000000 1.429333 -0.644000
v 0.455377 1.429333 -0.455377
v 0.455377 0.570667 -0.455377
v 0.644000 1.429333 0.000000
v 0.644000 0.570667 0.000000
v 0.455377 1.429333 0.455377
v 0.455377 0.570667 0.455377
v -0.000000 1.429333 0.644000
v -0.000000 0.570667 0.644000
v -0.455377 1.429333 0.455377
v -0.455377 0.570667 0.455377
v -0.644000 1.429333 -0.000000
v -0.644000 0.570667 -0.000000
v -0.455377 1.429333 -0.455377
v -0.455377 0.570667 -0.455377
v -0.000000 -1.226709 -0.385693
v 0.272726 -1.226709 -0.272726
v 0.385693 -1.226709 0.000000
v 0.272726 -1.226709 0.272726
v -0.000000 -1.226709 0.385693
v -0.272727 -1.226709 0.272726
v -0.385693 -1.226709 -0.000000
v -0.272727 -1.226709 -0.272726
v -0.000000 -1.520663 -0.465674
v 0.329281 -1.520663 -0.329281
v 0.465673 -1.520663 0.000000
v 0.329281 -1.520663 0.329281
v -0.000000 -1.520663 0.465674
v -0.329281 -1.520663 0.329281
v -0.465674 -1.520663 -0.000000
v -0.329281 -1.520663 -0.329281
vt 1.000000 0.833333
vt 1.000000 1.000000
vt 0.875000 1.000000
vt 0.875000 0.833333
vt 0.750000 1.000000
vt 0.750000 0.833333
vt 0.625000 1.000000
vt 0.625000 0.833333
vt 0.500000 1.000000
vt 0.500000 0.833333
vt 0.375000 1.000000
vt 0.375000 0.833333
vt 0.250000 1.000000
vt 0.250000 0.833333
vt 0.419706 0.419706
vt 0.250000 0.490000
vt 0.080294 0.419706
vt 0.010000 0.250000
vt 0.080294 0.080294
vt 0.250000 0.010000
vt 0.419706 0.080294
vt 0.490000 0.250000
vt 0.125000 1.000000
vt 0.125000 0.833333
vt 0.000000 1.000000
vt 0.000000 0.833333
vt 0.625000 0.500000
vt 0.500000 0.500000
vt 0.500000 0.500000
vt 0.625000 0.500000
vt 0.125000 0.500000
vt 0.125000 0.666667
vt 0.000000 0.666667
vt 0.000000 0.500000
vt 0.250000 0.500000
vt 0.250000 0.666667
vt 0.375000 0.500000
vt 0.375000 0.666667
vt 0.500000 0.666667
vt 0.625000 0.666667
vt 0.750000 0.500000
vt 0.750000 0.666667
vt 0.875000 0.500000
vt 0.875000 0.666667
vt 1.000000 0.500000
vt 1.000000 0.666667
vt 0.750000 0.500000
vt 0.625000 0.500000
vt 0.750000 0.500000
vt 0.125000 0.500000
vt 0.250000 0.500000
vt 0.875000 0.500000
vt 0.375000 0.500000
vt 0.000000 0.500000
vt 1.000000 0.500000
vt 0.750000 0.490000
vt 0.919706 0.419706
vt 0.990000 0.250000
vt 0.919706 0.080294
vt 0.750000 0.010000
vt 0.580294 0.080294
vt 0.510000 0.250000
vt 0.580294 0.419706
vt 0.875000 0.500000
vt 1.000000 0.500000
vt 0.000000 0.500000
vt 0.125000 0.500000
vt 0.250000 0.500000
vt 0.375000 0.500000
vt 0.500000 0.500000
vn 0.3803 0.1103 -0.9182
vn 0.9182 0.1103 -0.3803
vn 0.9182 0.1103 0.3803
vn 0.3803 0.1103 0.9182
vn -0.3803 0.1103 0.9182
vn -0.9182 0.1103 0.3803
vn 0.0000 1.0000 -0.0000
vn -0.9182 0.1103 -0.3803
vn -0.3803 0.1103 -0.9182
vn 0.3787 -0.1432 0.9144
vn -0.3802 -0.1129 -0.9180
vn -0.3827 0.0000 -0.9239
vn -0.9180 -0.1129 -0.3802
vn -0.9239 0.0000 -0.3827
vn -0.9180 -0.1129 0.3802
vn -0.9239 0.0000 0.3827
vn -0.3802 -0.1129 0.9180
vn -0.3827 0.0000 0.9239
vn 0.3802 -0.1129 0.9180
vn 0.3827 0.0000 0.9239
vn 0.9180 -0.1129 0.3802
vn 0.9239 0.0000 0.3827
vn 0.9180 -0.1129 -0.3802
vn 0.9239 0.0000 -0.3827
vn 0.3802 -0.1129 -0.9180
vn 0.3827 0.0000 -0.9239
vn 0.8960 0.2438 0.3711
vn -0.9144 -0.1432 -0.3787
vn 0.9144 -0.1432 -0.3787
vn -0.3787 -0.1432 0.9144
vn -0.3787 -0.1432 -0.9144
vn 0.3787 -0.1432 -0.9144
vn 0.9144 -0.1432 0.3787
vn -0.9144 -0.1432 0.3787
vn 0.0000 -1.0000 -0.0000
vn 0.3711 0.2438 -0.8960
vn -0.3711 0.2438 -0.8960
vn -0.8960 0.2438 0.3711
vn 0.3711 0.2438 0.8960
vn 0.8960 0.2438 -0.3711
vn -0.8960 0.2438 -0.3711
vn -0.3711 0.2438 0.8960
usemtl None
s off
f 18/1/1 2/2/1 4/3/1 19/4/1
f 19/4/2 4/3/2 6/5/2 21/6/2
f 21/6/3 6/5/3 8/7/3 23/8/3
f 23/8/4 8/7/4 10/9/4 25/10/4
f 25/10/5 10/9/5 12/11/5 27/12/5
f 27/12/6 12/11/6 14/13/6 29/14/6
f 4/15/7 2/16/7 16/17/7 14/18/7 12/19/7 10/20/7 8/21/7 6/22/7
f 29/14/8 14/13/8 16/23/8 31/24/8
f 31/24/9 16/23/9 2/25/9 18/26/9
f 7/27/10 9/28/10 37/29/10 36/30/10
f 15/31/11 32/32/11 17/33/11 1/34/11
f 32/32/12 31/24/12 18/26/12 17/33/12
f 13/35/13 30/36/13 32/32/13 15/31/13
f 30/36/14 29/14/14 31/24/14 32/32/14
f 11/37/15 28/38/15 30/36/15 13/35/15
f 28/38/16 27/12/16 29/14/16 30/36/16
f 9/28/17 26/39/17 28/38/17 11/37/17
f 26/39/18 25/10/18 27/12/18 28/38/18
f 7/27/19 24/40/19 26/39/19 9/28/19
f 24/40/20 23/8/20 25/10/20 26/39/20
f 5/41/21 22/42/21 24/40/21 7/27/21
f 22/42/22 21/6/22 23/8/22 24/40/22
f 3/43/23 20/44/23 22/42/23 5/41/23
f 20/44/24 19/4/24 21/6/24 22/42/24
f 1/45/25 17/46/25 20/44/25 3/43/25
f 17/46/26 18/1/26 19/4/26 20/44/26
f 35/47/27 36/30/27 44/48/27 43/49/27
f 13/35/28 15/31/28 40/50/28 39/51/28
f 3/43/29 5/41/29 35/47/29 34/52/29
f 9/28/30 11/37/30 38/53/30 37/29/30
f 15/31/31 1/34/31 33/54/31 40/50/31
f 1/45/32 3/43/32 34/52/32 33/55/32
f 5/41/33 7/27/33 36/30/33 35/47/33
f 11/37/34 13/35/34 39/51/34 38/53/34
f 41/56/35 42/57/35 43/58/35 44/59/35 45/60/35 46/61/35 47/62/35 48/63/35
f 33/55/36 34/52/36 42/64/36 41/65/36
f 40/50/37 33/54/37 41/66/37 48/67/37
f 38/53/38 39/51/38 47/68/38 46/69/38
f 36/30/39 37/29/39 45/70/39 44/48/39
f 34/52/40 35/47/40 43/49/40 42/64/40
f 39/51/41 40/50/41 48/67/41 47/68/41
f 37/29/42 38/53/42 46/69/42 45/70/42
