# Blender v2.81 (sub 16) OBJ File: ''
# www.blender.org
mtllib Rocket_Explosives.mtl
o Cylinder.001
v 0.000000 3.226048 0.361041
v 0.000000 2.638959 0.361041
v -0.255295 3.226048 0.255295
v -0.255295 2.638959 0.255295
v -0.361041 3.226048 -0.000000
v -0.361041 2.638959 -0.000000
v -0.255295 3.226048 -0.255295
v -0.255295 2.638959 -0.255295
v 0.000000 3.226048 -0.361041
v 0.000000 2.638959 -0.361041
v 0.255295 3.226048 -0.255295
v 0.255295 2.638959 -0.255295
v 0.361041 3.226048 0.000000
v 0.361041 2.638959 0.000000
v 0.255295 3.226048 0.255295
v 0.255295 2.638959 0.255295
v -0.000000 3.407501 0.261244
v -0.184728 3.407501 0.184728
v -0.261244 3.407501 -0.000000
v -0.184728 3.407501 -0.184728
v 0.000000 3.407501 -0.261244
v 0.184728 3.407501 -0.184728
v 0.261244 3.407501 0.000000
v 0.184728 3.407501 0.184728
v -0.000000 3.492067 0.033680
v -0.023815 3.492067 0.023815
v -0.033680 3.492067 -0.000000
v -0.023815 3.492067 -0.023815
v -0.000000 3.492067 -0.033680
v 0.023815 3.492067 -0.023815
v 0.033680 3.492067 0.000000
v 0.023815 3.492067 0.023815
v 0.000000 1.277173 0.781051
v -0.108309 1.550239 0.108309
v -0.781051 1.277173 -0.000000
v -0.108309 1.550239 -0.108309
v 0.000000 1.277173 -0.781051
v 0.108309 1.550239 -0.108309
v 0.781051 1.277173 0.000000
v 0.108309 1.550239 0.108309
v 0.000000 -1.263501 0.683342
v -0.108309 -0.559156 0.108309
v -0.683342 -1.263501 -0.000000
v -0.108309 -0.559156 -0.108309
v 0.000000 -1.263501 -0.683342
v 0.108309 -0.559156 -0.108309
v 0.683342 -1.263501 0.000000
v 0.108309 -0.559156 0.108309
v -1.003153 0.536388 -0.008281
v -0.145072 1.190128 -0.156632
v 0.003279 0.536388 0.998150
v -0.145072 1.190128 0.140069
v 0.151629 1.190128 0.140069
v 0.151629 1.190128 -0.156632
v 1.009710 0.536388 -0.008281
v 0.003279 0.536388 -1.014713
vt 1.000000 0.500000
vt 0.875000 0.500000
vt 0.875000 1.000000
vt 1.000000 1.000000
vt 0.750000 0.500000
vt 0.750000 1.000000
vt 0.625000 0.500000
vt 0.625000 1.000000
vt 0.500000 0.500000
vt 0.500000 1.000000
vt 0.375000 0.500000
vt 0.375000 1.000000
vt 0.250000 0.500000
vt 0.250000 1.000000
vt 0.375000 1.000000
vt 0.500000 1.000000
vt 0.125000 0.500000
vt 0.125000 1.000000
vt 0.000000 0.500000
vt 0.000000 1.000000
vt 0.625000 0.500000
vt 0.500000 0.500000
vt 0.875000 0.500000
vt 0.875000 0.500000
vt 0.750000 0.500000
vt 0.750000 0.500000
vt 0.250000 0.500000
vt 0.125000 0.500000
vt 0.375000 0.500000
vt 0.000000 0.500000
vt 1.000000 0.500000
vt 0.750000 0.490000
vt 0.580294 0.419706
vt 0.510000 0.250000
vt 0.580294 0.080294
vt 0.750000 0.010000
vt 0.919706 0.080294
vt 0.990000 0.250000
vt 0.919706 0.419706
vt 0.250000 0.500000
vt 0.125000 0.500000
vt 0.500000 0.500000
vt 0.375000 0.500000
vt 0.625000 0.500000
vt 1.000000 0.500000
vt 0.000000 0.500000
vt 0.625000 1.000000
vt 0.625000 1.000000
vt 0.750000 1.000000
vt 0.750000 1.000000
vt 0.000000 1.000000
vt 0.125000 1.000000
vt 0.875000 1.000000
vt 1.000000 1.000000
vt 0.625000 1.000000
vt 0.750000 1.000000
vt 0.250000 1.000000
vt 0.419706 0.419706
vt 0.490000 0.250000
vt 0.419706 0.080294
vt 0.250000 0.010000
vt 0.080294 0.080294
vt 0.010000 0.250000
vt 0.080294 0.419706
vt 0.250000 0.490000
vt 0.875000 1.000000
vt 0.875000 1.000000
vt 1.000000 1.000000
vt 1.000000 1.000000
vt 0.000000 1.000000
vt 0.000000 1.000000
vt 0.125000 1.000000
vt 0.125000 1.000000
vt 0.250000 1.000000
vt 0.250000 1.000000
vt 0.375000 1.000000
vt 0.375000 1.000000
vt 0.500000 1.000000
vt 0.500000 1.000000
vn -0.3827 0.0000 0.9239
vn -0.9239 0.0000 0.3827
vn -0.9239 0.0000 -0.3827
vn -0.3827 0.0000 -0.9239
vn 0.3827 0.0000 -0.9239
vn 0.9239 0.0000 -0.3827
vn 0.9070 -0.0075 -0.4210
vn 0.9239 0.0000 0.3827
vn 0.3827 0.0000 0.9239
vn -0.3412 0.4530 -0.8237
vn -0.3448 0.9278 0.1428
vn 0.8237 0.4530 0.3412
vn -0.8237 0.4530 0.3412
vn 0.3412 0.4530 -0.8237
vn 0.3412 0.4530 0.8237
vn -0.3412 0.4530 0.8237
vn -0.8237 0.4530 -0.3412
vn 0.8237 0.4530 -0.3412
vn 0.0000 1.0000 -0.0000
vn 0.3448 0.9278 0.1428
vn 0.1428 0.9278 -0.3448
vn -0.3448 0.9278 -0.1428
vn -0.1428 0.9278 0.3448
vn 0.1428 0.9278 0.3448
vn 0.3448 0.9278 -0.1428
vn -0.1428 0.9278 -0.3448
vn -0.1480 -0.0306 -0.9885
vn 0.9070 -0.0075 0.4210
vn -0.9070 -0.0075 0.4210
vn -0.4210 -0.0075 -0.9070
vn 0.4210 -0.0075 -0.9070
vn -0.9070 -0.0075 -0.4210
vn 0.4210 -0.0075 0.9070
vn -0.4210 -0.0075 0.9070
vn -0.0000 -1.0000 0.0000
vn -0.9878 -0.0243 0.1538
vn 0.9882 -0.0277 0.1507
vn 0.1475 -0.0311 -0.9886
vn -0.9880 -0.0256 -0.1526
vn -0.1558 -0.0222 0.9875
vn 0.1553 -0.0227 0.9876
vn 0.9883 -0.0290 -0.1495
vn 0.9701 0.0979 -0.2219
vn 0.2072 0.0720 0.9757
vn -0.2055 0.0691 0.9762
vn -0.9731 0.0845 -0.2143
vn 0.2263 0.1057 -0.9683
vn 0.9718 0.0903 0.2176
vn -0.9746 0.0771 0.2101
vn -0.2246 0.1026 -0.9690
usemtl None
s off
f 1/1/1 3/2/1 4/3/1 2/4/1
f 3/2/2 5/5/2 6/6/2 4/3/2
f 5/5/3 7/7/3 8/8/3 6/6/3
f 7/7/4 9/9/4 10/10/4 8/8/4
f 9/9/5 11/11/5 12/12/5 10/10/5
f 11/11/6 13/13/6 14/14/6 12/12/6
f 12/12/7 38/15/7 37/16/7 10/10/7
f 13/13/8 15/17/8 16/18/8 14/14/8
f 15/17/9 1/19/9 2/20/9 16/18/9
f 7/7/10 20/21/10 21/22/10 9/9/10
f 18/23/11 26/24/11 27/25/11 19/26/11
f 13/13/12 23/27/12 24/28/12 15/17/12
f 3/2/13 18/23/13 19/26/13 5/5/13
f 9/9/14 21/22/14 22/29/14 11/11/14
f 15/17/15 24/28/15 17/30/15 1/19/15
f 1/1/16 17/31/16 18/23/16 3/2/16
f 5/5/17 19/26/17 20/21/17 7/7/17
f 11/11/18 22/29/18 23/27/18 13/13/18
f 25/32/19 32/33/19 31/34/19 30/35/19 29/36/19 28/37/19 27/38/19 26/39/19
f 23/27/20 31/40/20 32/41/20 24/28/20
f 21/22/21 29/42/21 30/43/21 22/29/21
f 19/26/22 27/25/22 28/44/22 20/21/22
f 17/31/23 25/45/23 26/24/23 18/23/23
f 24/28/24 32/41/24 25/46/24 17/30/24
f 22/29/25 30/43/25 31/40/25 23/27/25
f 20/21/26 28/44/26 29/42/26 21/22/26
f 50/47/27 44/48/27 43/49/27 49/50/27
f 2/20/28 33/51/28 40/52/28 16/18/28
f 4/3/29 34/53/29 33/54/29 2/4/29
f 8/8/30 36/55/30 35/56/30 6/6/30
f 14/14/31 39/57/31 38/15/31 12/12/31
f 10/10/32 37/16/32 36/55/32 8/8/32
f 16/18/33 40/52/33 39/57/33 14/14/33
f 6/6/34 35/56/34 34/53/34 4/3/34
f 42/58/35 43/59/35 44/60/35 45/61/35 46/62/35 47/63/35 48/64/35 41/65/35
f 52/66/36 42/67/36 41/68/36 51/69/36
f 51/70/37 41/71/37 48/72/37 53/73/37
f 55/74/38 47/75/38 46/76/38 54/77/38
f 56/78/39 45/79/39 44/48/39 50/47/39
f 49/50/40 43/49/40 42/67/40 52/66/40
f 53/73/41 48/72/41 47/75/41 55/74/41
f 54/77/42 46/76/42 45/79/42 56/78/42
f 38/15/43 54/77/43 56/78/43 37/16/43
f 40/52/44 53/73/44 55/74/44 39/57/44
f 35/56/45 49/50/45 52/66/45 34/53/45
f 37/16/46 56/78/46 50/47/46 36/55/46
f 39/57/47 55/74/47 54/77/47 38/15/47
f 33/51/48 51/70/48 53/73/48 40/52/48
f 34/53/49 52/66/49 51/69/49 33/54/49
f 36/55/50 50/47/50 49/50/50 35/56/50
