# Blender v2.79 (sub 0) OBJ File: 'door.blend'
# www.blender.org
mtllib door.mtl
o Cube.001_Cube.002
v -1.000000 -0.174421 3.000000
v -1.000000 5.345055 3.000000
v -1.000000 -0.174421 0.975900
v -1.000000 5.345055 0.975900
v 0.046157 0.506866 2.318713
v 0.046157 4.663768 2.318713
v 0.086873 -0.174421 0.000000
v 0.086873 5.345055 0.000000
v -0.181501 -0.174421 0.000000
v -0.181501 5.345055 0.000000
v -0.181501 -0.174421 3.000000
v -0.181501 5.345055 3.000000
v 0.046157 0.506866 0.681287
v 0.046157 4.663768 0.681287
v 0.086873 -0.174421 3.000000
v 0.086873 5.345055 3.000000
v 0.086873 5.186421 0.158634
v 0.086873 -0.015787 0.158634
v 0.086873 -0.015787 2.841366
v 0.086873 5.186421 2.841366
v -0.033785 5.156682 0.188373
v -0.033785 0.013952 0.188373
v -0.033785 0.013952 2.811627
v -0.033785 5.156682 2.811627
v -0.033785 4.747914 0.597141
v -0.033785 0.422720 0.597141
v -0.033785 0.422720 2.402859
v -0.033785 4.747914 2.402859
v -0.093252 5.345055 0.000000
v -0.003794 5.345055 0.000000
v -0.093252 -0.174421 3.000000
v -0.003794 -0.174421 3.000000
v -0.003794 -0.174421 0.000000
v -0.093252 -0.174421 0.000000
v -0.003794 5.345055 3.000000
v -0.093252 5.345055 3.000000
v -1.000000 0.929474 3.000000
v -1.000000 2.033370 3.000000
v -1.000000 3.137265 3.000000
v -1.000000 4.241160 3.000000
v -1.000000 4.241160 0.975900
v -1.000000 3.137265 0.975900
v -1.000000 2.033370 0.975900
v -1.000000 0.929474 0.975900
v 0.086873 4.145979 0.158634
v 0.086873 3.105538 0.158634
v 0.086873 2.065096 0.158634
v 0.086873 1.024655 0.158634
v 0.086873 4.241160 3.000000
v 0.086873 3.137265 3.000000
v 0.086873 2.033370 3.000000
v 0.086873 0.929474 3.000000
v -0.181501 4.241160 3.000000
v -0.181501 3.137265 3.000000
v -0.181501 2.033370 3.000000
v -0.181501 0.929474 3.000000
v -0.181501 0.929474 0.000000
v -0.181501 1.012290 0.000000
v -0.181501 4.165064 0.000000
v -0.181501 4.241160 0.000000
v 0.086873 4.241160 0.000000
v 0.086873 4.165064 0.000000
v 0.086873 1.012290 0.000000
v 0.086873 0.929474 0.000000
v 0.086873 4.145979 2.841366
v 0.086873 3.105538 2.841366
v 0.086873 2.065096 2.841366
v 0.086873 1.024655 2.841366
v -0.033785 4.128136 0.188373
v -0.033785 3.099590 0.188373
v -0.033785 2.071044 0.188373
v -0.033785 1.042498 0.188373
v -0.033785 4.128136 2.811627
v -0.033785 3.099590 2.811627
v -0.033785 2.071044 2.811627
v -0.033785 1.042498 2.811627
v -0.033785 3.882875 0.597141
v -0.033785 3.017837 0.597141
v -0.033785 2.152798 0.597141
v -0.033785 1.287759 0.597141
v -0.033785 3.882875 2.402859
v -0.033785 3.017837 2.402859
v -0.033785 2.152798 2.402859
v -0.033785 1.287759 2.402859
v 0.046157 3.832388 0.681287
v 0.046157 3.001008 0.681287
v 0.046157 2.169627 0.681287
v 0.046157 1.338246 0.681287
v 0.046157 3.832388 2.318713
v 0.046157 3.001008 2.318713
v 0.046157 2.169627 2.318713
v 0.046157 1.338246 2.318713
v -0.093252 4.241160 0.000000
v -0.093252 4.165064 0.000000
v -0.093252 1.012290 0.000000
v -0.093252 0.929474 0.000000
v -0.003794 4.241160 0.000000
v -0.003794 4.165064 0.000000
v -0.003794 1.012290 0.000000
v -0.003794 0.929474 0.000000
v -0.003794 4.241160 3.000000
v -0.003794 3.137265 3.000000
v -0.003794 2.033370 3.000000
v -0.003794 0.929474 3.000000
v -0.093252 4.241160 3.000000
v -0.093252 3.137265 3.000000
v -0.093252 2.033370 3.000000
v -0.093252 0.929474 3.000000
v -0.093252 1.012290 -0.052949
v -0.093252 0.929474 -0.052949
v -0.003794 1.012290 -0.052949
v -0.003794 0.929474 -0.052949
v -0.093252 4.241160 -0.052949
v -0.093252 4.165064 -0.052949
v -0.003794 4.241160 -0.052949
v -0.003794 4.165064 -0.052949
vn -1.0000 0.0000 0.0000
vn 1.0000 0.0000 0.0000
vn 0.0000 0.0000 1.0000
vn 0.0000 -1.0000 0.0000
vn 0.0000 1.0000 0.0000
vn -0.7662 0.0000 -0.6426
vn 0.2393 0.0000 0.9709
vn 0.2393 0.9709 0.0000
vn 0.2393 -0.9709 0.0000
vn 0.2393 0.0000 -0.9709
vn 0.7250 0.0000 -0.6888
vn 0.7250 -0.6888 0.0000
vn 0.7250 0.6888 0.0000
vn 0.7250 0.0000 0.6888
vn 0.0000 0.0000 -1.0000
usemtl None
s off
f 40//1 2//1 4//1 41//1
f 85//2 14//2 6//2 89//2
f 53//3 12//3 2//3 40//3
f 33//4 7//4 15//4 32//4
f 10//5 4//5 2//5 12//5
f 29//5 10//5 12//5 36//5
f 3//4 9//4 11//4 1//4
f 105//3 36//3 12//3 53//3
f 44//6 57//6 9//6 3//6
f 48//2 18//2 7//2 64//2
f 18//2 19//2 15//2 7//2
f 20//2 17//2 8//2 16//2
f 65//2 20//2 16//2 49//2
f 72//7 22//7 18//7 48//7
f 22//8 23//8 19//8 18//8
f 24//9 21//9 17//9 20//9
f 73//10 24//10 20//10 65//10
f 80//2 26//2 22//2 72//2
f 26//2 27//2 23//2 22//2
f 28//2 25//2 21//2 24//2
f 81//2 28//2 24//2 73//2
f 88//11 13//11 26//11 80//11
f 13//12 5//12 27//12 26//12
f 6//13 14//13 25//13 28//13
f 89//14 6//14 28//14 81//14
f 100//15 64//15 7//15 33//15
f 57//15 96//15 34//15 9//15
f 96//15 100//15 33//15 34//15
f 49//3 16//3 35//3 101//3
f 101//3 35//3 36//3 105//3
f 8//5 30//5 35//5 16//5
f 30//5 29//5 36//5 35//5
f 9//4 34//4 31//4 11//4
f 34//4 33//4 32//4 31//4
f 32//3 104//3 108//3 31//3
f 104//3 103//3 107//3 108//3
f 103//3 102//3 106//3 107//3
f 102//3 101//3 105//3 106//3
f 15//3 52//3 104//3 32//3
f 52//3 51//3 103//3 104//3
f 51//3 50//3 102//3 103//3
f 50//3 49//3 101//3 102//3
f 29//15 30//15 97//15 93//15
f 97//2 98//2 116//2 115//2
f 94//15 98//15 99//15 95//15
f 99//2 100//2 112//2 111//2
f 10//15 29//15 93//15 60//15
f 60//15 93//15 94//15 59//15
f 59//15 94//15 95//15 58//15
f 58//15 95//15 96//15 57//15
f 30//15 8//15 61//15 97//15
f 97//15 61//15 62//15 98//15
f 98//15 62//15 63//15 99//15
f 99//15 63//15 64//15 100//15
f 5//14 92//14 84//14 27//14
f 92//14 91//14 83//14 84//14
f 91//14 90//14 82//14 83//14
f 90//14 89//14 81//14 82//14
f 14//11 85//11 77//11 25//11
f 85//11 86//11 78//11 77//11
f 86//11 87//11 79//11 78//11
f 87//11 88//11 80//11 79//11
f 27//2 84//2 76//2 23//2
f 84//2 83//2 75//2 76//2
f 83//2 82//2 74//2 75//2
f 82//2 81//2 73//2 74//2
f 25//2 77//2 69//2 21//2
f 77//2 78//2 70//2 69//2
f 78//2 79//2 71//2 70//2
f 79//2 80//2 72//2 71//2
f 23//10 76//10 68//10 19//10
f 76//10 75//10 67//10 68//10
f 75//10 74//10 66//10 67//10
f 74//10 73//10 65//10 66//10
f 21//7 69//7 45//7 17//7
f 69//7 70//7 46//7 45//7
f 70//7 71//7 47//7 46//7
f 71//7 72//7 48//7 47//7
f 19//2 68//2 52//2 15//2
f 68//2 67//2 51//2 52//2
f 67//2 66//2 50//2 51//2
f 66//2 65//2 49//2 50//2
f 17//2 45//2 61//2 8//2
f 45//2 46//2 62//2 61//2
f 46//2 47//2 63//2 62//2
f 47//2 48//2 64//2 63//2
f 4//6 10//6 60//6 41//6
f 41//6 60//6 59//6 42//6
f 42//6 59//6 58//6 43//6
f 43//6 58//6 57//6 44//6
f 31//3 108//3 56//3 11//3
f 108//3 107//3 55//3 56//3
f 107//3 106//3 54//3 55//3
f 106//3 105//3 53//3 54//3
f 11//3 56//3 37//3 1//3
f 56//3 55//3 38//3 37//3
f 55//3 54//3 39//3 38//3
f 54//3 53//3 40//3 39//3
f 13//2 88//2 92//2 5//2
f 88//2 87//2 91//2 92//2
f 87//2 86//2 90//2 91//2
f 86//2 85//2 89//2 90//2
f 1//1 37//1 44//1 3//1
f 37//1 38//1 43//1 44//1
f 38//1 39//1 42//1 43//1
f 39//1 40//1 41//1 42//1
f 109//15 111//15 112//15 110//15
f 100//4 96//4 110//4 112//4
f 96//1 95//1 109//1 110//1
f 95//5 99//5 111//5 109//5
f 113//15 115//15 116//15 114//15
f 98//4 94//4 114//4 116//4
f 94//1 93//1 113//1 114//1
f 93//5 97//5 115//5 113//5
